<?xml version="1.0" encoding="UTF-8"?> <svg xmlns="http://www.w3.org/2000/svg" xmlns:xlink="http://www.w3.org/1999/xlink" viewBox="0 0 1011.69 380.02"><defs><clipPath id="a"><rect x="135.53" y="21.99" width="750.75" height="337.13" style="fill:none"></rect></clipPath><clipPath id="b"><rect x="135.46" y="7.76" width="758.63" height="359.26" style="fill:none"></rect></clipPath></defs><g style="clip-path:url(#a)"><path d="M259.28,235l12.08-32.8L284.63,235Zm52.07,33.54q-3.12-2.43-5.34-7.84l-31.47-75.62h-2l-29.91,77a14.54,14.54,0,0,1-4.81,6.72c-2,1.48-7.46,2.36-10.63,2.57h0l-.73,0h-1c-3.41,0-5.79-.88-7-2.48s-1.86-5.28-1.86-11.05V207.24c0-6.72.66-11,2-12.73s4-2.64,8.08-2.64v-3.72c-.84,0-2,.08-3.55.12q-8.58.36-11.83.36-3.06,0-11.59-.3l-3.79-.18v3.72h1.69q4.56,0,6.48,2.19c1.29,1.47,1.92,4,1.92,7.48v26.61H156.12V207.24q0-10,2.08-12.7t8.14-2.67v-3.72c-.76,0-1.87.08-3.31.12q-8.82.36-12.19.36c-2,0-5.87-.1-11.59-.3l-3.78-.18v3.72h1.73q4.58,0,6.52,2.22t1.95,7.45v57.24q0,7.16-2.13,9.85t-7.72,2.71h-.35l.05,3.66q4.69-.18,8.56-.27t6.76-.09q2.88,0,6.76.09t8.74.27v-3.66h-1.21q-5.22,0-7.11-2.47t-1.9-11V233.07H206v25.71q0,7.22-2.1,9.88t-7.62,2.68h-.37V275q4.76-.18,8.59-.27t6.79-.09q2.82,0,6.64.09c2.25,0,5.37.14,8.34.14h0c.39,0,1.7,0,2.17,0,2.94-.08,7.13-.08,8.83-.13,2-.06,3.44-.09,4.45-.09q3.24,0,7,.09c2.48.06,5.15.15,8,.27l.06-3.66c-2.88-.28-4.84-.77-5.86-1.45a3.76,3.76,0,0,1-1.53-3.36,12.43,12.43,0,0,1,.18-2,14.21,14.21,0,0,1,.54-2.16l7.39-21.87H287l9.07,22a9.16,9.16,0,0,1,.57,1.62,6.08,6.08,0,0,1,.21,1.44,4.77,4.77,0,0,1-2.55,4.29,14,14,0,0,1-7.18,1.54V275q5-.18,9.49-.27c3-.06,5.83-.09,8.47-.09q1.92,0,5.52.09t8.95.27v-3.66a14.82,14.82,0,0,1-8.17-2.8" style="fill:#a20e32"></path></g><g style="clip-path:url(#b)"><path d="M457.74,253.12q-1.92,9.86-6.67,13.25t-19.88,3.39q-9.62,0-11.89-1.83T417,258.17V231.38h10.69q9.18,0,11.89,1.86c1.8,1.24,2.72,3.57,2.76,7H446c-.05-.48-.06-1.2-.06-2.16-.12-4.6-.18-7.81-.18-9.61,0-1.44,0-4.15.12-8.11,0-1.28.07-2.28.12-3h-3.61a6.56,6.56,0,0,0,.06.78,6.37,6.37,0,0,1,.06.72q0,4.74-3.48,6.54t-14,1.81c-.77,0-2,0-3.79-.06s-3.16-.06-4.2-.06V193.48h7.39q17,0,21.83,3.12t5.13,11.89h3.3c0-2.24-.09-5.35-.3-9.34s-.29-6.85-.29-8.62v-2.34q-9.91.24-18.44.36t-14.9.12q-6.42,0-12.46-.12c-3.58-.07-8-.24-11.46-.25h-.24c-2.33,0-6.41.08-8.58.14s-4.42.11-6.55.11q-2.52,0-5.85-.09t-7.42-.27l-.06,3.72c2.88.24,4.86.7,5.92,1.36a3.44,3.44,0,0,1,1.59,3.15,10.35,10.35,0,0,1-.33,2.34,29.11,29.11,0,0,1-1,3.19L350.7,261.77l-25.1-61c-.32-.79-.57-1.49-.75-2.07a5.12,5.12,0,0,1-.27-1.47,4.22,4.22,0,0,1,2.31-3.93q2.31-1.29,7.18-1.42v-3.66q-4.51.18-8.56.27c-2.71.06-5.25.09-7.66.09q-3.06,0-7.15-.09t-9.06-.27v3.72a14.72,14.72,0,0,1,8.22,2.86q3,2.43,5.77,9L346.26,277h2.82l32-73.21q3.36-7.81,6.09-9.79c1.81-1.31,5.59-2.05,8.9-2.18l1,0h1c3,0,5.24.86,6.54,2.34s2,4,2,7.45v57.24q0,7.16-2.13,9.85t-7.72,2.7h-.36v3.67q6.54-.24,13.3-.37t14-.11q5.65,0,14.42.08t20.6.28q.18-3.56,1.11-10.78t1.11-11Z" style="fill:#fff"></path><path d="M504.49,230.61a35.28,35.28,0,0,1-4.38-.27,34.64,34.64,0,0,1-4.51-.87l.06-37c1.56-.12,3-.21,4.36-.27s2.49-.09,3.45-.09q9.91,0,15.29,5.32t5.37,15.1q0,8.83-5,13.46t-14.63,4.62M612.27,197.3q-.15-5-.15-9.16-9.86.24-18.44.36t-14.89.12q-6.43,0-12.46-.12t-11.93-.36v3.72h1.75q4.56,0,6.51,2.23t2,7.44v57.25c0,4.77-.45,8.3-2.13,9.85-3.57,3.3-9.1,3.27-9.1,3.27h0c-4.88,0-10.09-.63-12.82-2.53s-6.12-6.47-10.12-13.72l-13.16-23.24q9.38-2.1,13.85-7.42t4.47-14.33q0-10.69-7.32-16.79t-20.37-6.09q-2.64,0-9.24.42t-10.57.42c-1.65,0-3.6,0-5.86-.12s-4.7-.2-7.3-.36v3.72h1.74q4.57,0,6.52,2.22c1.3,1.48,1.95,4,1.95,7.45v57.24q0,7.16-2.13,9.85t-7.72,2.71h-.36L475,275c3.12-.12,6-.21,8.56-.27s4.83-.09,6.76-.09,4.17,0,6.76.09,5.49.15,8.73.27v-3.66h-1.2c-3.48,0-5.85-.83-7.12-2.47s-1.89-5.3-1.89-11V235l2.59.18q6.54.42,7.38.84c1,.44,2.47,2.4,4.51,5.89q.48.84.78,1.32L522.21,262c3.28,5.44,6.49,8.59,9.61,10.53s7.25,2.92,12.37,2.92c1,0,4.06,0,5.18-.09.79,0,2.69-.16,4.23-.27,3.09-.12,6.88-.28,9.42-.34s4.84-.09,6.76-.09,4.17,0,6.76.09,5.49.15,8.74.27v-3.66h-1.21q-5.22,0-7.11-2.47t-1.9-11V231.33h11.35q9.14,0,11.84,2c1.8,1.32,2.78,3.91,2.94,7.75h3.42q0-.66-.06-1.92c-.12-4.85-.18-8.19-.18-10s.06-5,.18-9.6c0-1,.06-1.7.06-2.23H601v1.38q0,4.88-3.39,6.67t-14.27,1.8q-1.2,0-3.93-.06c-1.82,0-3.28-.06-4.36-.06V193.42h7.39q17.06,0,21.83,3.13t5.14,11.89h3.3q-.3-6.19-.45-11.14" style="fill:#fff"></path><path d="M632.13,229.35q0,18.68,10,30.87t24.92,12.2a28.29,28.29,0,0,0,22.41-10.48q8.94-10.49,9-26.52,0-19.39-9.88-31.93T663.36,191q-14.48,0-22.85,10.21t-8.38,28.17M665.82,277q-19.64,0-32.7-12.91t-13.06-32.13q0-19.23,12.67-32.38A41.66,41.66,0,0,1,664,186.4q20,0,33.12,12.89t13.13,32.52q0,19.41-12.64,32.29T665.82,277" style="fill:#fff"></path><path d="M864.35,261q-10.92,9.58-30.27,9.58-9.24,0-12.43-2.76c-2-1.78-3.1-5.35-3.17-10.68V242l0-48.38q4.86-.42,8.61-.63t6.94-.21q18.67,0,29.94,11.47t11.26,30.33q0,16.89-10.93,26.46M747.91,230.61a35.28,35.28,0,0,1-4.38-.27,32.76,32.76,0,0,1-4.51-.87l.06-37q2.34-.18,4.35-.27c1.35-.06,2.5-.09,3.46-.09q9.92,0,15.29,5.32t5.37,15.1q0,8.83-5,13.46t-14.63,4.62M882.4,212.46a38.68,38.68,0,0,0-10.66-14.09,43.41,43.41,0,0,0-15.19-7.92,72.55,72.55,0,0,0-20.48-2.53c-2.65,0-6.51.12-11.6.36-3.18.15-5.85.25-8,.31s-4.53-.05-6.74-.09q-6-.12-11.92-.36v0h0v3.72h1.75c3,0,5.21.75,6.51,2.23s2,4,2,7.44v56.23c0,.39,0,.77,0,1.15,0,4.69-.46,8.16-2.13,9.7-3.57,3.3-9.1,3.27-9.1,3.27h0c-4.89,0-10.09-.63-12.82-2.53s-6.12-6.47-10.12-13.72L760.7,232.42q9.38-2.1,13.85-7.42T779,210.67q0-10.69-7.32-16.79t-20.37-6.09q-2.64,0-9.25.41c-4.4.28-7.92.43-10.57.43q-2.46,0-5.85-.12t-7.3-.36v3.72h1.74c3,0,5.22.74,6.52,2.22s2,4,2,7.45v57.24q0,7.16-2.13,9.85c-1.42,1.81-4,2.7-7.72,2.7h-.36l.06,3.67c3.12-.12,6-.21,8.56-.27s4.84-.09,6.76-.09,4.17,0,6.75.09,5.5.15,8.74.27v-3.67H748c-3.48,0-5.86-.82-7.12-2.46s-1.89-5.3-1.89-11V235l2.58.18q6.55.42,7.39.84,1.44.66,4.51,5.89c.31.56.58,1,.78,1.32L765.63,262c3.28,5.44,6.48,8.59,9.61,10.53s7.25,2.92,12.37,2.92c1,0,4.06,0,5.18-.09.79,0,2.69-.16,4.22-.27,2.19-.09,4.7-.19,6.9-.26l1.88-.06c2.65-.06,5.11-.08,7.39-.08s5.82.09,10.72.3,8.68.29,11.32.29q24.27,0,37.66-11.83t13.39-33.15a42.35,42.35,0,0,0-3.87-17.81" style="fill:#fff"></path><path d="M380,319.18H378.9a19.25,19.25,0,0,0-7.54-8.39A23,23,0,0,0,359.68,308a19.32,19.32,0,0,0-14.91,6.34Q339,320.73,339,330.85q0,11.22,5.84,18.24a18.77,18.77,0,0,0,15.14,7,22.1,22.1,0,0,0,11.1-2.79,30.22,30.22,0,0,0,9.34-8.85v5.82a24.63,24.63,0,0,1-9.14,6.48,29.81,29.81,0,0,1-11.77,2.36q-12.27,0-20-7.37t-7.69-19a26.9,26.9,0,0,1,7.93-19.83q7.92-7.93,19.88-7.94,5.67,0,14.77,2.95,3.8,1.19,5.6,1.61-.08,2.13-.09,3.15c0,.68,0,1.33,0,1.95,0,.41,0,1.32.07,2.74,0,.76.05,1.37.08,1.83" style="fill:#fff"></path><path d="M396.11,330.64q0,11.17,6,18.46A18.55,18.55,0,0,0,417,356.4a16.9,16.9,0,0,0,13.4-6.27q5.35-6.27,5.35-15.86,0-11.61-5.91-19.1a18.39,18.39,0,0,0-15.07-7.49q-8.66,0-13.67,6.11t-5,16.85m20.15,28.49q-11.75,0-19.56-7.73a25.92,25.92,0,0,1-7.81-19.22,26.8,26.8,0,0,1,7.58-19.36A24.89,24.89,0,0,1,415.15,305q12,0,19.81,7.71t7.85,19.45q0,11.61-7.56,19.31a25.49,25.49,0,0,1-19,7.71" style="fill:#fff"></path><path d="M450.91,306c.43,0,1,.05,1.8.07q5.39.22,7.4.22t7.18-.18l2.27-.11v2.23q-3.29,0-4.69,1.35c-.95.89-1.42,2.38-1.42,4.44v32.47q0,5,2.24,6.67t9.43,1.7c4.67,0,7.88-.7,9.61-2.1s2.84-4,3.29-7.92h2.05v.25q-.15,8.44-.32,12.86-6.87,0-15.6-.16c-5.82-.09-9.36-.12-10.63-.12-1.56,0-4.58,0-9,.17l-3.56.11v-2.19h.25q3.3,0,4.55-1.6c.82-1.06,1.24-3,1.24-5.91V314c0-2.11-.38-3.6-1.14-4.48s-2-1.31-3.86-1.31h-1Z" style="fill:#fff"></path><path d="M496,306c.44,0,1,.05,1.8.07q5.38.22,7.4.22t7.19-.18l2.26-.11v2.23q-3.27,0-4.69,1.35c-.94.89-1.42,2.38-1.42,4.44v32.47q0,5,2.25,6.67t9.43,1.7q7,0,9.61-2.1t3.29-7.92h2v.25q-.14,8.44-.32,12.86-6.86,0-15.59-.16c-5.82-.09-9.37-.12-10.63-.12-1.56,0-4.58,0-9.06.17l-3.56.11v-2.19h.25c2.21,0,3.72-.53,4.55-1.6s1.24-3,1.24-5.91V314c0-2.11-.38-3.6-1.13-4.48s-2-1.31-3.86-1.31H496Z" style="fill:#fff"></path><path d="M540.72,357.94v-2.19h.21q3.35,0,4.62-1.62c.85-1.07,1.28-3,1.28-5.89V314c0-2.08-.39-3.56-1.17-4.45a5,5,0,0,0-3.9-1.33h-1V306c2.35.1,4.72.17,7.13.22s4.89.07,7.45.07,5.52,0,8.92-.07,7.07-.12,11-.22v1.4q0,1.59.18,5.16c.12,2.38.18,4.24.18,5.59h-2c-.15-3.5-1.17-5.87-3.08-7.12s-6.25-1.86-13-1.86h-4.42v20.07l2.51,0c1,0,1.81,0,2.27,0q6.28,0,8.37-1.08a4,4,0,0,0,2.08-3.92,3,3,0,0,0,0-.43,4.54,4.54,0,0,1,0-.46h2.15c0,.43,0,1-.07,1.79-.05,2.37-.07,4-.07,4.85,0,1.08,0,3,.11,5.75q0,.87,0,1.29h-2.15c0-2-.58-3.42-1.65-4.16s-3.45-1.12-7.12-1.12h-6.39v16c0,3.17.45,5.11,1.36,5.85s3.28,1.09,7.12,1.09q9,0,11.89-2t4-7.92h1.9q-.11,2.26-.67,6.59c-.36,2.89-.59,5-.66,6.45q-7.08-.11-12.32-.16t-8.62-.06c-2.9,0-5.7,0-8.39.07s-5.35.13-8,.22" style="fill:#fff"></path><path d="M636.3,309.12c0,1,0,1.89-.06,2.78s0,1.85,0,2.86c0,.72,0,1.4,0,2.05s0,1.3.06,2h-2a15.28,15.28,0,0,0-6.23-8.24q-4.26-2.64-11.37-2.64-9.84,0-15.88,6.2t-6,16.32q0,10.84,6.79,18.12a22.21,22.21,0,0,0,17,7.28,23.82,23.82,0,0,0,5.89-.72,28.78,28.78,0,0,0,5.82-2.22V342.06q0-3.27-1-4.29c-.69-.68-2-1-3.9-1H625v-2.11l4.24.12c1.87.06,3.22.09,4.06.09s2.22,0,4.15-.09l4.29-.12v2.11h-.43q-2.73,0-3.72.9c-.66.6-1,1.73-1,3.38v13.76A64.71,64.71,0,0,1,626.09,358a46.37,46.37,0,0,1-9.73,1.1q-12.58,0-20.53-7.83t-8-20.12a24.57,24.57,0,0,1,8-18.83q7.95-7.39,20.46-7.4,6.6,0,17.92,3.49c.91.28,1.61.51,2.09.68" style="fill:#fff"></path><path d="M650.7,357.94v-2.19h.22q3.33,0,4.61-1.62c.85-1.07,1.28-3,1.28-5.89V314c0-2.08-.39-3.56-1.17-4.45a5,5,0,0,0-3.9-1.33h-1V306q3.52.15,7.13.22t7.46.07q3.81,0,8.91-.07t11-.22v1.4q0,1.59.18,5.16c.12,2.38.18,4.24.18,5.59h-2c-.14-3.5-1.17-5.87-3.07-7.12s-6.26-1.86-13.06-1.86h-4.42v20.07l2.52,0c1,0,1.8,0,2.26,0q6.28,0,8.37-1.08a4,4,0,0,0,2.08-3.92c0-.09,0-.23,0-.43a3,3,0,0,1,0-.46h2.16c0,.43,0,1-.08,1.79,0,2.37-.07,4-.07,4.85,0,1.08,0,3,.11,5.75,0,.58,0,1,0,1.29h-2.16c0-2-.57-3.42-1.65-4.16s-3.45-1.12-7.11-1.12h-6.4v16c0,3.17.45,5.11,1.37,5.85s3.28,1.09,7.11,1.09q9,0,11.89-2t4-7.92h1.9q-.11,2.26-.66,6.59t-.67,6.45q-7.07-.11-12.32-.16t-8.62-.06c-2.9,0-5.69,0-8.39.07s-5.35.13-8,.22" style="fill:#fff"></path><path d="M634.78,120.37h8.48v2.31H637.2v12.83h-2.42Zm0-23.75h8.48v2.3H637.2v12.83h-2.42Zm15.63-10.25h8.29V97.26h-8.29Zm16,34h8.48v2.31H668.8v12.83h-2.41Zm0-23.75h8.48v2.3H668.8v12.83h-2.41Zm-263.12,20.6V120H625.32v36.48h9.46V145.05h8.48v2.3H637.2v9.17h29.19V145.05h8.48v2.3H668.8v9.17H684V76.47h-9.16v2.35h-6.07V88H666.4V76.47H643.26v2.35H637.2V88h-2.42V76.47h-9.45V117H403.27Z" style="fill:#fff"></path><path d="M403.27,138.42h5v-15h-5Z" style="fill:#fff"></path><path d="M475.84,147.43h20.87v-24h-5.43v2.27h-6.06v12.69H494v1.42H475.84Z" style="fill:#fff"></path><path d="M499.12,147.43h3.21V128.11a5.16,5.16,0,0,1,2.9-4.65h-6.11Z" style="fill:#fff"></path><path d="M353.9,96.61v2.31h-6.07v12.83h-2.41V96.61Zm0,26.07h-6.07v12.83h-2.41V120.37h8.48ZM377,120.37h8.47v2.31h-6.06v12.83H377Zm0-23.76h8.47v2.31h-6.06v12.83H377Zm-40.72-20.1v80h9.11V145h8.48v2.31h-6.07v9.17H377V145h8.47v2.31h-6.06v9.17H395v-80h-9.44v2.3h-6.07V88H377V76.51H353.9v2.3h-6.07V88h-2.41V76.51Z" style="fill:#fff"></path><path d="M494.68,43.26h0Z" style="fill:#fff"></path><path d="M517,138.47h-1.83V130H517Zm-8.28,0h-1.82V130h1.82Zm-4-10.22s0,0,0,0v19.11h17.88v-24h-6.17a4.13,4.13,0,0,1,2.27,3.46h0v1.38Z" style="fill:#fff"></path><path d="M475.84,138.42h7v-15h-7Z" style="fill:#fff"></path></g><g style="clip-path:url(#a)"><path d="M656,56.33l24.67,15h-4.77L656,59.23l-19.9,12.12H631.3l24.67-15h0ZM621.86,73.64h68.5L656,52.72,639.57,62.79h0Z" style="fill:#fff"></path><path d="M494.76,41.41l9.36-1.72h15.35l-7.54-4.86V22c-.08,0-.18,0-.19.12s-.9,11.4-.9,11.4-1.46.14-1.46.75v.65l-14.66,6.5h0Z" style="fill:#fff"></path></g><g style="clip-path:url(#b)"><path d="M615.24,80v2.35h-6.06v8h-2.41V80H590.61v2.35h-6.06v8h-2.42V80H565.78v2.35h-6.07v8H557.3V80H540.94v2.35h-6.06v8h-2.41V80H516.11v2.35H510v8h-2.41V80H491.27v2.35h-6.06v8H482.8V80H466.44v2.35h-6.07v8H458V80H441.6v2.35h-6.06v8h-2.41V80H416.77v2.35H410.7v8h-2.41V80h-5v32.76h5V97.94h8.47v2.31h-6.06v12.48h22.44V97.94h8.47v2.31h-6.06v12.48H458V97.94h8.48v2.31h-6.07v12.48h22.43V97.94h8.47v2.31h-6.06v12.48h22.44V97.94h8.47v2.31h-6.06v12.48h22.42V97.94H541v2.31H534.9v12.48h22.41V97.94h8.48v2.31h-6.06v12.48h22.42V97.94h8.47v2.31h-6.06v12.48h22.21V97.94h8.47v2.31h-6.06v12.48H619.5l4,4V77.58L619.56,80Z" style="fill:#fff"></path><path d="M498.19,46.47l5-.84v2l-3.31.57V60.27h-1.66Zm9.46-.91h8.48v2.31h-6.07v12.4h-2.41Zm-11,17.23,8.51,5.95h14.47V41.64H504.12L496.59,43v1.07h0V62.79h0Z" style="fill:#fff"></path><path d="M364.1,56.33h0l24.67,15H384L364.1,59.23,344.2,71.36h-4.77Zm-34.18,17.3h68.39l4.75,2.84h214l4.76-2.83H398.33L364.09,52.81,329.9,73.63h0Z" style="fill:#fff"></path><path d="M450.94,138.42h7v-15h-7Z" style="fill:#fff"></path><path d="M575.07,138.42h7.07v-15h-7.07Z" style="fill:#fff"></path><path d="M623.5,123.46h-8.26v2.27h-6.06v12.69H623.5Z" style="fill:#fff"></path><path d="M599.77,138.42h7v-15h-7Z" style="fill:#fff"></path><path d="M575.07,147.43H594.7v9.09h2.7V123.46h-6.78v2.27h-6.06v12.69H594.7v1.42H575.07Z" style="fill:#fff"></path><path d="M525,147.43h20.18v9.09h2.71V123.46h-7v2.27H534.9v12.69h10.32v1.42H525Z" style="fill:#fff"></path><path d="M550.27,147.43H570v9.09h2.71V123.46h-6.89v2.27h-6.06v12.69H570v1.42h-19.7Z" style="fill:#fff"></path><path d="M550.27,138.42h7.05v-15h-7.05Z" style="fill:#fff"></path><path d="M525,138.42h7.45v-15H525Z" style="fill:#fff"></path><path d="M599.77,147.43H623.5v-7.59H599.77Z" style="fill:#fff"></path><path d="M450.94,147.43H470.7v9.09h2.71V123.46h-7v2.27h-6.07v12.69h10.33v1.42H450.94Z" style="fill:#fff"></path></g><g style="clip-path:url(#a)"><path d="M426,138.42h7.14v-15H426Z" style="fill:#fff"></path><path d="M639.57,62.79H527.17V44.14l1.94-.84V41.43l-14.6-6.5s0-.3,0-.66c0-.61-1.46-.74-1.46-.74s-.89-11.27-.9-11.42-.21-.11-.21-.11h0V34.83l7.54,4.86H504.12l-9.37,1.72h-.07v1.85l1.9.82h0V43h0l7.53-1.39h15.46v27.1H505.11l-8.51-5.95H380.52l17.81,10.84H621.86Z" style="fill:#231f20"></path></g><g style="clip-path:url(#b)"><path d="M505,126.91h13.58c-.86-1.89-3.82-3.06-6.79-3.09s-5.93.86-6.79,3.09" style="fill:#fff"></path><path d="M510.06,47.87h6.07V45.56h-8.48V60.27h2.41Z" style="fill:#231f20"></path><path d="M499.85,48.18l3.31-.56v-2l-5,.84v13.8h1.66Z" style="fill:#231f20"></path><path d="M345.42,111.75h2.41V98.92h6.07v-2.3h-8.48Z" style="fill:#231f20"></path><path d="M345.42,135.51h2.41V122.68h6.07v-2.31h-8.48Z" style="fill:#231f20"></path><path d="M379.44,98.92h6.06v-2.3H377v15.13h2.41Z" style="fill:#231f20"></path><path d="M379.44,122.68h6.06v-2.31H377v15.14h2.41Z" style="fill:#231f20"></path><path d="M420.91,156.52h2.71V123.46h-6.87v2.23h-6.06v12.73h10.23v1.42H396.78v7.59h24.13Z" style="fill:#fff"></path><path d="M426,147.43h19.79v9.09h2.73V123.46H441.6v2.27h-6.06v12.69H445.8v1.42H426Z" style="fill:#fff"></path><path d="M506.91,138.51h1.82V130h-1.82Z" style="fill:#231f20"></path><path d="M515.18,138.47H517V130h-1.83Z" style="fill:#231f20"></path><path d="M370.89,56.93V48.77h-13.6v8.17l6.8-4.14Z" style="fill:#231f20"></path><path d="M662.77,56.84l0-8.17H649.17v8.21h0L656,52.71Z" style="fill:#231f20"></path><path d="M690.39,73.63h0" style="fill:none;stroke:#231f20;stroke-linecap:round;stroke-linejoin:round;stroke-width:2.4707640099188204px"></path><path d="M623.5,116.78l-4-4H609.18V100.25h6.06V97.94h-8.47v14.79H584.56V100.25h6.06V97.94h-8.47v14.79H559.73V100.25h6.06V97.94h-8.47v14.79H534.9V100.25H541V97.94h-8.47v14.79H510.07V100.25h6.06V97.94h-8.47v14.79H485.22V100.25h6.07V97.94h-8.48v14.79H460.38V100.25h6.07V97.94H458v14.79H435.54V100.25h6.07V97.94h-8.48v14.79H410.69V100.25h6.06V97.94h-8.47v14.79h-5V80h5V90.36h2.41v-8h6.07V80h16.36V90.36h2.41v-8h6.06V80H458V90.36h2.41v-8h6.07V80H482.8V90.36h2.41v-8h6.06V80h16.36V90.36H510v-8h6.07V80h16.36V90.36h2.41v-8h6.06V80H557.3V90.36h2.41v-8h6.07V80h16.36V90.36h2.4v-8h6.07V80h16.16V90.36h2.41v-8h6.06V80h4.32l3.94-2.38Zm1.83-40.3h9.45V88h2.42V78.81h6.06V76.47H666.4V88h2.41V78.81h6.07V76.47H684v80.05H668.8v-9.17h6.07v-2.3h-8.48v11.47H637.2v-9.17h6.06v-2.3h-8.48v11.47h-9.46V120H403.27V117H625.33ZM347.83,88V78.81h6.07v-2.3H377V88h2.41V78.81h6.07v-2.3H395v80H379.44v-9.17h6.06v-2.3H377v11.47h-29.2v-9.17h6.07v-2.3h-8.48v11.47h-9.11v-80h9.11V88Zm261.35,50.44V125.73h6.06v-2.27h8.26v15Zm-9.42-15h7v15h-7Zm23.74,24H599.76v-7.59H623.5Zm-48.43-24h7.08v15h-7.08Zm19.63,16.38v-1.42H584.56V125.73h6.06v-2.27h6.79v33.06h-2.72v-9.09H575.07v-7.59Zm-44.43-16.38h7v15h-7ZM570,139.84v-1.42H559.73V125.73h6.06v-2.27h6.89v33.06H570v-9.09h-19.7v-7.59ZM525,123.46h7.45v15H525Zm20.18,16.38v-1.42H534.9V125.73H541v-2.27h7v33.06h-2.7v-9.09H525v-7.59ZM526,156.67H495.55v-2.31H526Zm-3.29-4.61h-24v-2.32h24Zm-20.38-23.95v19.32h-3.21v-24h6.11a5.17,5.17,0,0,0-2.9,4.65m16.26-1.2H505c.86-2.23,3.81-3.07,6.79-3.1s5.93,1.21,6.79,3.1m.13,0a4.07,4.07,0,0,0-2.28-3.45h6.18v24H504.75V128.29h14v-1.38Zm-42.89-3.45h7v15h-7ZM494,139.84v-1.42h-8.78V125.73h6.07v-2.27h5.41v24H475.83v-7.59Zm-43.06-16.38h7v15h-7Zm19.77,16.38v-1.42H460.38V125.73h6.07v-2.27h7v33.06H470.7v-9.09H450.94v-7.59ZM426,123.46h7.14v15H426Zm19.81,16.38v-1.42H435.54V125.73h6.07v-2.27h6.9v33.06h-2.73v-9.09H426v-7.59Zm-49,0h24.14v-1.42H410.69V125.69h6.06v-2.23h6.87v33.06h-2.71v-9.09H396.78Zm6.49-16.38h5v15h-5Zm213.83-47h-214l-4.75-2.84H329.92l3.3,2.63v84.06H687.13V76.21l3.25-2.57H621.87Z" style="fill:#231f20"></path><path d="M329.92,73.63h0" style="fill:none;stroke:#231f20;stroke-linecap:round;stroke-linejoin:round;stroke-width:2.4707640099188204px"></path><path d="M637.19,98.92h6.07v-2.3h-8.48v15.13h2.41Z" style="fill:#231f20"></path><path d="M637.19,122.68h6.07v-2.31h-8.48v15.14h2.41Z" style="fill:#231f20"></path><path d="M668.8,98.92h6.06v-2.3h-8.47v15.13h2.41Z" style="fill:#231f20"></path><path d="M668.8,122.68h6.06v-2.31h-8.47v15.14h2.41Z" style="fill:#231f20"></path><path d="M657.05,95.26h-5v-7h5Zm1.65-8.89h-8.29V97.26h8.29Z" style="fill:#231f20"></path><path d="M652.08,95.26h5v-7h-5Z" style="fill:#fff"></path><path d="M495.55,156.67H526v-2.31H495.55Z" style="fill:#fff"></path><path d="M498.67,152.06h24v-2.32h-24Z" style="fill:#fff"></path><path d="M364.1,59.23,384,71.36h4.77l-24.67-15h0l-24.67,15h4.77Z" style="fill:#231f20"></path><path d="M631.3,71.35h4.77L656,59.22l19.91,12.13h4.77L656,56.33h0Z" style="fill:#231f20"></path></g><g style="clip-path:url(#a)"><path d="M259.28,235l12.08-32.8L284.63,235Zm52.07,33.54q-3.12-2.43-5.34-7.84l-31.47-75.62h-2l-29.91,77a14.54,14.54,0,0,1-4.81,6.72c-2,1.48-7.46,2.36-10.63,2.57h0l-.73,0h-1c-3.41,0-5.79-.88-7-2.48s-1.86-5.28-1.86-11.05V207.24c0-6.72.66-11,2-12.73s4-2.64,8.08-2.64v-3.72c-.84,0-2,.08-3.55.12q-8.58.36-11.83.36-3.06,0-11.59-.3l-3.79-.18v3.72h1.69q4.56,0,6.48,2.19c1.29,1.47,1.92,4,1.92,7.48v26.61H156.12V207.24q0-10,2.08-12.7t8.14-2.67v-3.72c-.76,0-1.87.08-3.31.12q-8.82.36-12.19.36c-2,0-5.87-.1-11.59-.3l-3.78-.18v3.72h1.73q4.58,0,6.52,2.22t1.95,7.45v57.24q0,7.16-2.13,9.85t-7.72,2.71h-.35l.05,3.66q4.69-.18,8.56-.27t6.76-.09q2.88,0,6.76.09t8.74.27v-3.66h-1.21q-5.22,0-7.11-2.47t-1.9-11V233.07H206v25.71q0,7.22-2.1,9.88t-7.62,2.68h-.37V275q4.76-.18,8.59-.27t6.79-.09q2.82,0,6.64.09c2.25,0,5.37.14,8.34.14h0c.39,0,1.7,0,2.17,0,2.94-.08,7.13-.08,8.83-.13,2-.06,3.44-.09,4.45-.09q3.24,0,7,.09c2.48.06,5.15.15,8,.27l.06-3.66c-2.88-.28-4.84-.77-5.86-1.45a3.76,3.76,0,0,1-1.53-3.36,12.43,12.43,0,0,1,.18-2,14.21,14.21,0,0,1,.54-2.16l7.39-21.87H287l9.07,22a9.16,9.16,0,0,1,.57,1.62,6.08,6.08,0,0,1,.21,1.44,4.77,4.77,0,0,1-2.55,4.29,14,14,0,0,1-7.18,1.54V275q5-.18,9.49-.27c3-.06,5.83-.09,8.47-.09q1.92,0,5.52.09t8.95.27v-3.66a14.82,14.82,0,0,1-8.17-2.8" style="fill:#014758"></path></g><g style="clip-path:url(#b)"><path d="M457.74,253.12q-1.92,9.86-6.67,13.25t-19.88,3.39q-9.62,0-11.89-1.83T417,258.17V231.38h10.69q9.18,0,11.89,1.86c1.8,1.24,2.72,3.57,2.76,7H446c-.05-.48-.06-1.2-.06-2.16-.12-4.6-.18-7.81-.18-9.61,0-1.44,0-4.15.12-8.11,0-1.28.07-2.28.12-3h-3.61a6.56,6.56,0,0,0,.06.78,6.37,6.37,0,0,1,.06.72q0,4.74-3.48,6.54t-14,1.81c-.77,0-2,0-3.79-.06s-3.16-.06-4.2-.06V193.48h7.39q17,0,21.83,3.12t5.13,11.89h3.3c0-2.24-.09-5.35-.3-9.34s-.29-6.85-.29-8.62v-2.34q-9.91.24-18.44.36t-14.9.12q-6.42,0-12.46-.12c-3.58-.07-8-.24-11.46-.25h-.24c-2.33,0-6.41.08-8.58.14s-4.42.11-6.55.11q-2.52,0-5.85-.09t-7.42-.27l-.06,3.72c2.88.24,4.86.7,5.92,1.36a3.44,3.44,0,0,1,1.59,3.15,10.35,10.35,0,0,1-.33,2.34,29.11,29.11,0,0,1-1,3.19L350.7,261.77l-25.1-61c-.32-.79-.57-1.49-.75-2.07a5.12,5.12,0,0,1-.27-1.47,4.22,4.22,0,0,1,2.31-3.93q2.31-1.29,7.18-1.42v-3.66q-4.51.18-8.56.27c-2.71.06-5.25.09-7.66.09q-3.06,0-7.15-.09t-9.06-.27v3.72a14.72,14.72,0,0,1,8.22,2.86q3,2.43,5.77,9L346.26,277h2.82l32-73.21q3.36-7.81,6.09-9.79c1.81-1.31,5.59-2.05,8.9-2.18l1,0h1c3,0,5.24.86,6.54,2.34s2,4,2,7.45v57.24q0,7.16-2.13,9.85t-7.72,2.7h-.36v3.67q6.54-.24,13.3-.37t14-.11q5.65,0,14.42.08t20.6.28q.18-3.56,1.11-10.78t1.11-11Z" style="fill:#014758"></path><path d="M504.49,230.61a35.28,35.28,0,0,1-4.38-.27,34.64,34.64,0,0,1-4.51-.87l.06-37c1.56-.12,3-.21,4.36-.27s2.49-.09,3.45-.09q9.91,0,15.29,5.32t5.37,15.1q0,8.83-5,13.46t-14.63,4.62M612.27,197.3q-.15-5-.15-9.16-9.86.24-18.44.36t-14.89.12q-6.43,0-12.46-.12t-11.93-.36v3.72h1.75q4.56,0,6.51,2.23t2,7.44v57.25c0,4.77-.45,8.3-2.13,9.85-3.57,3.3-9.1,3.27-9.1,3.27h0c-4.88,0-10.09-.63-12.82-2.53s-6.12-6.47-10.12-13.72l-13.16-23.24q9.38-2.1,13.85-7.42t4.47-14.33q0-10.69-7.32-16.79t-20.37-6.09q-2.64,0-9.24.42t-10.57.42c-1.65,0-3.6,0-5.86-.12s-4.7-.2-7.3-.36v3.72h1.74q4.57,0,6.52,2.22c1.3,1.48,1.95,4,1.95,7.45v57.24q0,7.16-2.13,9.85t-7.72,2.71h-.36L475,275c3.12-.12,6-.21,8.56-.27s4.83-.09,6.76-.09,4.17,0,6.76.09,5.49.15,8.73.27v-3.66h-1.2c-3.48,0-5.85-.83-7.12-2.47s-1.89-5.3-1.89-11V235l2.59.18q6.54.42,7.38.84c1,.44,2.47,2.4,4.51,5.89q.48.84.78,1.32L522.21,262c3.28,5.44,6.49,8.59,9.61,10.53s7.25,2.92,12.37,2.92c1,0,4.06,0,5.18-.09.79,0,2.69-.16,4.23-.27,3.09-.12,6.88-.28,9.42-.34s4.84-.09,6.76-.09,4.17,0,6.76.09,5.49.15,8.74.27v-3.66h-1.21q-5.22,0-7.11-2.47t-1.9-11V231.33h11.35q9.14,0,11.84,2c1.8,1.32,2.78,3.91,2.94,7.75h3.42q0-.66-.06-1.92c-.12-4.85-.18-8.19-.18-10s.06-5,.18-9.6c0-1,.06-1.7.06-2.23H601v1.38q0,4.88-3.39,6.67t-14.27,1.8q-1.2,0-3.93-.06c-1.82,0-3.28-.06-4.36-.06V193.42h7.39q17.06,0,21.83,3.13t5.14,11.89h3.3q-.3-6.19-.45-11.14" style="fill:#014758"></path><path d="M632.13,229.35q0,18.68,10,30.87t24.92,12.2a28.29,28.29,0,0,0,22.41-10.48q8.94-10.49,9-26.52,0-19.39-9.88-31.93T663.36,191q-14.48,0-22.85,10.21t-8.38,28.17M665.82,277q-19.64,0-32.7-12.91t-13.06-32.13q0-19.23,12.67-32.38A41.66,41.66,0,0,1,664,186.4q20,0,33.12,12.89t13.13,32.52q0,19.41-12.64,32.29T665.82,277" style="fill:#014758"></path><path d="M864.35,261q-10.92,9.58-30.27,9.58-9.24,0-12.43-2.76c-2-1.78-3.1-5.35-3.17-10.68V242l0-48.38q4.86-.42,8.61-.63t6.94-.21q18.67,0,29.94,11.47t11.26,30.33q0,16.89-10.93,26.46M747.91,230.61a35.28,35.28,0,0,1-4.38-.27,32.76,32.76,0,0,1-4.51-.87l.06-37q2.34-.18,4.35-.27c1.35-.06,2.5-.09,3.46-.09q9.92,0,15.29,5.32t5.37,15.1q0,8.83-5,13.46t-14.63,4.62M882.4,212.46a38.68,38.68,0,0,0-10.66-14.09,43.41,43.41,0,0,0-15.19-7.92,72.55,72.55,0,0,0-20.48-2.53c-2.65,0-6.51.12-11.6.36-3.18.15-5.85.25-8,.31s-4.53-.05-6.74-.09q-6-.12-11.92-.36v0h0v3.72h1.75c3,0,5.21.75,6.51,2.23s2,4,2,7.44v56.23c0,.39,0,.77,0,1.15,0,4.69-.46,8.16-2.13,9.7-3.57,3.3-9.1,3.27-9.1,3.27h0c-4.89,0-10.09-.63-12.82-2.53s-6.12-6.47-10.12-13.72L760.7,232.42q9.38-2.1,13.85-7.42T779,210.67q0-10.69-7.32-16.79t-20.37-6.09q-2.64,0-9.25.41c-4.4.28-7.92.43-10.57.43q-2.46,0-5.85-.12t-7.3-.36v3.72h1.74c3,0,5.22.74,6.52,2.22s2,4,2,7.45v57.24q0,7.16-2.13,9.85c-1.42,1.81-4,2.7-7.72,2.7h-.36l.06,3.67c3.12-.12,6-.21,8.56-.27s4.84-.09,6.76-.09,4.17,0,6.75.09,5.5.15,8.74.27v-3.67H748c-3.48,0-5.86-.82-7.12-2.46s-1.89-5.3-1.89-11V235l2.58.18q6.55.42,7.39.84,1.44.66,4.51,5.89c.31.56.58,1,.78,1.32L765.63,262c3.28,5.44,6.48,8.59,9.61,10.53s7.25,2.92,12.37,2.92c1,0,4.06,0,5.18-.09.79,0,2.69-.16,4.22-.27,2.19-.09,4.7-.19,6.9-.26l1.88-.06c2.65-.06,5.11-.08,7.39-.08s5.82.09,10.72.3,8.68.29,11.32.29q24.27,0,37.66-11.83t13.39-33.15a42.35,42.35,0,0,0-3.87-17.81" style="fill:#014758"></path><path d="M380,319.18H378.9a19.25,19.25,0,0,0-7.54-8.39A23,23,0,0,0,359.68,308a19.32,19.32,0,0,0-14.91,6.34Q339,320.73,339,330.85q0,11.22,5.84,18.24a18.77,18.77,0,0,0,15.14,7,22.1,22.1,0,0,0,11.1-2.79,30.22,30.22,0,0,0,9.34-8.85v5.82a24.63,24.63,0,0,1-9.14,6.48,29.81,29.81,0,0,1-11.77,2.36q-12.27,0-20-7.37t-7.69-19a26.9,26.9,0,0,1,7.93-19.83q7.92-7.93,19.88-7.94,5.67,0,14.77,2.95,3.8,1.19,5.6,1.61-.08,2.13-.09,3.15c0,.68,0,1.33,0,1.95,0,.41,0,1.32.07,2.74,0,.76.05,1.37.08,1.83" style="fill:#014758"></path><path d="M396.11,330.64q0,11.17,6,18.46A18.55,18.55,0,0,0,417,356.4a16.9,16.9,0,0,0,13.4-6.27q5.35-6.27,5.35-15.86,0-11.61-5.91-19.1a18.39,18.39,0,0,0-15.07-7.49q-8.66,0-13.67,6.11t-5,16.85m20.15,28.49q-11.75,0-19.56-7.73a25.92,25.92,0,0,1-7.81-19.22,26.8,26.8,0,0,1,7.58-19.36A24.89,24.89,0,0,1,415.15,305q12,0,19.81,7.71t7.85,19.45q0,11.61-7.56,19.31a25.49,25.49,0,0,1-19,7.71" style="fill:#014758"></path><path d="M450.91,306c.43,0,1,.05,1.8.07q5.39.22,7.4.22t7.18-.18l2.27-.11v2.23q-3.29,0-4.69,1.35c-.95.89-1.42,2.38-1.42,4.44v32.47q0,5,2.24,6.67t9.43,1.7c4.67,0,7.88-.7,9.61-2.1s2.84-4,3.29-7.92h2.05v.25q-.15,8.44-.32,12.86-6.87,0-15.6-.16c-5.82-.09-9.36-.12-10.63-.12-1.56,0-4.58,0-9,.17l-3.56.11v-2.19h.25q3.3,0,4.55-1.6c.82-1.06,1.24-3,1.24-5.91V314c0-2.11-.38-3.6-1.14-4.48s-2-1.31-3.86-1.31h-1Z" style="fill:#014758"></path><path d="M496,306c.44,0,1,.05,1.8.07q5.38.22,7.4.22t7.19-.18l2.26-.11v2.23q-3.27,0-4.69,1.35c-.94.89-1.42,2.38-1.42,4.44v32.47q0,5,2.25,6.67t9.43,1.7q7,0,9.61-2.1t3.29-7.92h2v.25q-.14,8.44-.32,12.86-6.86,0-15.59-.16c-5.82-.09-9.37-.12-10.63-.12-1.56,0-4.58,0-9.06.17l-3.56.11v-2.19h.25c2.21,0,3.72-.53,4.55-1.6s1.24-3,1.24-5.91V314c0-2.11-.38-3.6-1.13-4.48s-2-1.31-3.86-1.31H496Z" style="fill:#014758"></path><path d="M540.72,357.94v-2.19h.21q3.35,0,4.62-1.62c.85-1.07,1.28-3,1.28-5.89V314c0-2.08-.39-3.56-1.17-4.45a5,5,0,0,0-3.9-1.33h-1V306c2.35.1,4.72.17,7.13.22s4.89.07,7.45.07,5.52,0,8.92-.07,7.07-.12,11-.22v1.4q0,1.59.18,5.16c.12,2.38.18,4.24.18,5.59h-2c-.15-3.5-1.17-5.87-3.08-7.12s-6.25-1.86-13-1.86h-4.42v20.07l2.51,0c1,0,1.81,0,2.27,0q6.28,0,8.37-1.08a4,4,0,0,0,2.08-3.92,3,3,0,0,0,0-.43,4.54,4.54,0,0,1,0-.46h2.15c0,.43,0,1-.07,1.79-.05,2.37-.07,4-.07,4.85,0,1.08,0,3,.11,5.75q0,.87,0,1.29h-2.15c0-2-.58-3.42-1.65-4.16s-3.45-1.12-7.12-1.12h-6.39v16c0,3.17.45,5.11,1.36,5.85s3.28,1.09,7.12,1.09q9,0,11.89-2t4-7.92h1.9q-.11,2.26-.67,6.59c-.36,2.89-.59,5-.66,6.45q-7.08-.11-12.32-.16t-8.62-.06c-2.9,0-5.7,0-8.39.07s-5.35.13-8,.22" style="fill:#014758"></path><path d="M636.3,309.12c0,1,0,1.89-.06,2.78s0,1.85,0,2.86c0,.72,0,1.4,0,2.05s0,1.3.06,2h-2a15.28,15.28,0,0,0-6.23-8.24q-4.26-2.64-11.37-2.64-9.84,0-15.88,6.2t-6,16.32q0,10.84,6.79,18.12a22.21,22.21,0,0,0,17,7.28,23.82,23.82,0,0,0,5.89-.72,28.78,28.78,0,0,0,5.82-2.22V342.06q0-3.27-1-4.29c-.69-.68-2-1-3.9-1H625v-2.11l4.24.12c1.87.06,3.22.09,4.06.09s2.22,0,4.15-.09l4.29-.12v2.11h-.43q-2.73,0-3.72.9c-.66.6-1,1.73-1,3.38v13.76A64.71,64.71,0,0,1,626.09,358a46.37,46.37,0,0,1-9.73,1.1q-12.58,0-20.53-7.83t-8-20.12a24.57,24.57,0,0,1,8-18.83q7.95-7.39,20.46-7.4,6.6,0,17.92,3.49c.91.28,1.61.51,2.09.68" style="fill:#014758"></path><path d="M650.7,357.94v-2.19h.22q3.33,0,4.61-1.62c.85-1.07,1.28-3,1.28-5.89V314c0-2.08-.39-3.56-1.17-4.45a5,5,0,0,0-3.9-1.33h-1V306q3.52.15,7.13.22t7.46.07q3.81,0,8.91-.07t11-.22v1.4q0,1.59.18,5.16c.12,2.38.18,4.24.18,5.59h-2c-.14-3.5-1.17-5.87-3.07-7.12s-6.26-1.86-13.06-1.86h-4.42v20.07l2.52,0c1,0,1.8,0,2.26,0q6.28,0,8.37-1.08a4,4,0,0,0,2.08-3.92c0-.09,0-.23,0-.43a3,3,0,0,1,0-.46h2.16c0,.43,0,1-.08,1.79,0,2.37-.07,4-.07,4.85,0,1.08,0,3,.11,5.75,0,.58,0,1,0,1.29h-2.16c0-2-.57-3.42-1.65-4.16s-3.45-1.12-7.11-1.12h-6.4v16c0,3.17.45,5.11,1.37,5.85s3.28,1.09,7.11,1.09q9,0,11.89-2t4-7.92h1.9q-.11,2.26-.66,6.59t-.67,6.45q-7.07-.11-12.32-.16t-8.62-.06c-2.9,0-5.69,0-8.39.07s-5.35.13-8,.22" style="fill:#014758"></path><path d="M634.78,120.37h8.48v2.31H637.2v12.83h-2.42Zm0-23.75h8.48v2.3H637.2v12.83h-2.42Zm15.63-10.25h8.29V97.26h-8.29Zm16,34h8.48v2.31H668.8v12.83h-2.41Zm0-23.75h8.48v2.3H668.8v12.83h-2.41Zm-263.12,20.6V120H625.32v36.48h9.46V145.05h8.48v2.3H637.2v9.17h29.19V145.05h8.48v2.3H668.8v9.17H684V76.47h-9.16v2.35h-6.07V88H666.4V76.47H643.26v2.35H637.2V88h-2.42V76.47h-9.45V117H403.27Z" style="fill:#014758"></path><path d="M403.27,138.42h5v-15h-5Z" style="fill:#014758"></path><path d="M475.84,147.43h20.87v-24h-5.43v2.27h-6.06v12.69H494v1.42H475.84Z" style="fill:#014758"></path><path d="M499.12,147.43h3.21V128.11a5.16,5.16,0,0,1,2.9-4.65h-6.11Z" style="fill:#014758"></path><path d="M353.9,96.61v2.31h-6.07v12.83h-2.41V96.61Zm0,26.07h-6.07v12.83h-2.41V120.37h8.48ZM377,120.37h8.47v2.31h-6.06v12.83H377Zm0-23.76h8.47v2.31h-6.06v12.83H377Zm-40.72-20.1v80h9.11V145h8.48v2.31h-6.07v9.17H377V145h8.47v2.31h-6.06v9.17H395v-80h-9.44v2.3h-6.07V88H377V76.51H353.9v2.3h-6.07V88h-2.41V76.51Z" style="fill:#014758"></path><path d="M494.68,43.26h0Z" style="fill:#014758"></path><path d="M517,138.47h-1.83V130H517Zm-8.28,0h-1.82V130h1.82Zm-4-10.22s0,0,0,0v19.11h17.88v-24h-6.17a4.13,4.13,0,0,1,2.27,3.46h0v1.38Z" style="fill:#014758"></path><path d="M475.84,138.42h7v-15h-7Z" style="fill:#014758"></path></g><g style="clip-path:url(#a)"><path d="M656,56.33l24.67,15h-4.77L656,59.23l-19.9,12.12H631.3l24.67-15h0ZM621.86,73.64h68.5L656,52.72,639.57,62.79h0Z" style="fill:#014758"></path><path d="M494.76,41.41l9.36-1.72h15.35l-7.54-4.86V22c-.08,0-.18,0-.19.12s-.9,11.4-.9,11.4-1.46.14-1.46.75v.65l-14.66,6.5h0Z" style="fill:#014758"></path></g><g style="clip-path:url(#b)"><path d="M615.24,80v2.35h-6.06v8h-2.41V80H590.61v2.35h-6.06v8h-2.42V80H565.78v2.35h-6.07v8H557.3V80H540.94v2.35h-6.06v8h-2.41V80H516.11v2.35H510v8h-2.41V80H491.27v2.35h-6.06v8H482.8V80H466.44v2.35h-6.07v8H458V80H441.6v2.35h-6.06v8h-2.41V80H416.77v2.35H410.7v8h-2.41V80h-5v32.76h5V97.94h8.47v2.31h-6.06v12.48h22.44V97.94h8.47v2.31h-6.06v12.48H458V97.94h8.48v2.31h-6.07v12.48h22.43V97.94h8.47v2.31h-6.06v12.48h22.44V97.94h8.47v2.31h-6.06v12.48h22.42V97.94H541v2.31H534.9v12.48h22.41V97.94h8.48v2.31h-6.06v12.48h22.42V97.94h8.47v2.31h-6.06v12.48h22.21V97.94h8.47v2.31h-6.06v12.48H619.5l4,4V77.58L619.56,80Z" style="fill:#014758"></path><path d="M498.19,46.47l5-.84v2l-3.31.57V60.27h-1.66Zm9.46-.91h8.48v2.31h-6.07v12.4h-2.41Zm-11,17.23,8.51,5.95h14.47V41.64H504.12L496.59,43v1.07h0V62.79h0Z" style="fill:#014758"></path><path d="M364.1,56.33h0l24.67,15H384L364.1,59.23,344.2,71.36h-4.77Zm-34.18,17.3h68.39l4.75,2.84h214l4.76-2.83H398.33L364.09,52.81,329.9,73.63h0Z" style="fill:#014758"></path><path d="M450.94,138.42h7v-15h-7Z" style="fill:#014758"></path><path d="M575.07,138.42h7.07v-15h-7.07Z" style="fill:#014758"></path><path d="M623.5,123.46h-8.26v2.27h-6.06v12.69H623.5Z" style="fill:#014758"></path><path d="M599.77,138.42h7v-15h-7Z" style="fill:#014758"></path><path d="M575.07,147.43H594.7v9.09h2.7V123.46h-6.78v2.27h-6.06v12.69H594.7v1.42H575.07Z" style="fill:#014758"></path><path d="M525,147.43h20.18v9.09h2.71V123.46h-7v2.27H534.9v12.69h10.32v1.42H525Z" style="fill:#014758"></path><path d="M550.27,147.43H570v9.09h2.71V123.46h-6.89v2.27h-6.06v12.69H570v1.42h-19.7Z" style="fill:#014758"></path><path d="M550.27,138.42h7.05v-15h-7.05Z" style="fill:#014758"></path><path d="M525,138.42h7.45v-15H525Z" style="fill:#014758"></path><path d="M599.77,147.43H623.5v-7.59H599.77Z" style="fill:#014758"></path><path d="M450.94,147.43H470.7v9.09h2.71V123.46h-7v2.27h-6.07v12.69h10.33v1.42H450.94Z" style="fill:#014758"></path></g><g style="clip-path:url(#a)"><path d="M426,138.42h7.14v-15H426Z" style="fill:#014758"></path><path d="M639.57,62.79H527.17V44.14l1.94-.84V41.43l-14.6-6.5s0-.3,0-.66c0-.61-1.46-.74-1.46-.74s-.89-11.27-.9-11.42-.21-.11-.21-.11h0V34.83l7.54,4.86H504.12l-9.37,1.72h-.07v1.85l1.9.82h0V43h0l7.53-1.39h15.46v27.1H505.11l-8.51-5.95H380.52l17.81,10.84H621.86Z" style="fill:#014758"></path></g><g style="clip-path:url(#b)"><path d="M505,126.91h13.58c-.86-1.89-3.82-3.06-6.79-3.09s-5.93.86-6.79,3.09" style="fill:#014758"></path><path d="M510.06,47.87h6.07V45.56h-8.48V60.27h2.41Z" style="fill:#014758"></path><path d="M499.85,48.18l3.31-.56v-2l-5,.84v13.8h1.66Z" style="fill:#014758"></path><path d="M345.42,111.75h2.41V98.92h6.07v-2.3h-8.48Z" style="fill:#014758"></path><path d="M345.42,135.51h2.41V122.68h6.07v-2.31h-8.48Z" style="fill:#014758"></path><path d="M379.44,98.92h6.06v-2.3H377v15.13h2.41Z" style="fill:#014758"></path><path d="M379.44,122.68h6.06v-2.31H377v15.14h2.41Z" style="fill:#014758"></path><path d="M420.91,156.52h2.71V123.46h-6.87v2.23h-6.06v12.73h10.23v1.42H396.78v7.59h24.13Z" style="fill:#014758"></path><path d="M426,147.43h19.79v9.09h2.73V123.46H441.6v2.27h-6.06v12.69H445.8v1.42H426Z" style="fill:#014758"></path><path d="M506.91,138.51h1.82V130h-1.82Z" style="fill:#014758"></path><path d="M515.18,138.47H517V130h-1.83Z" style="fill:#014758"></path><path d="M370.89,56.93V48.77h-13.6v8.17l6.8-4.14Z" style="fill:#014758"></path><path d="M662.77,56.84l0-8.17H649.17v8.21h0L656,52.71Z" style="fill:#014758"></path><path d="M623.5,116.78l-4-4H609.18V100.25h6.06V97.94h-8.47v14.79H584.56V100.25h6.06V97.94h-8.47v14.79H559.73V100.25h6.06V97.94h-8.47v14.79H534.9V100.25H541V97.94h-8.47v14.79H510.07V100.25h6.06V97.94h-8.47v14.79H485.22V100.25h6.07V97.94h-8.48v14.79H460.38V100.25h6.07V97.94H458v14.79H435.54V100.25h6.07V97.94h-8.48v14.79H410.69V100.25h6.06V97.94h-8.47v14.79h-5V80h5V90.36h2.41v-8h6.07V80h16.36V90.36h2.41v-8h6.06V80H458V90.36h2.41v-8h6.07V80H482.8V90.36h2.41v-8h6.06V80h16.36V90.36H510v-8h6.07V80h16.36V90.36h2.41v-8h6.06V80H557.3V90.36h2.41v-8h6.07V80h16.36V90.36h2.4v-8h6.07V80h16.16V90.36h2.41v-8h6.06V80h4.32l3.94-2.38Zm1.83-40.3h9.45V88h2.42V78.81h6.06V76.47H666.4V88h2.41V78.81h6.07V76.47H684v80.05H668.8v-9.17h6.07v-2.3h-8.48v11.47H637.2v-9.17h6.06v-2.3h-8.48v11.47h-9.46V120H403.27V117H625.33ZM347.83,88V78.81h6.07v-2.3H377V88h2.41V78.81h6.07v-2.3H395v80H379.44v-9.17h6.06v-2.3H377v11.47h-29.2v-9.17h6.07v-2.3h-8.48v11.47h-9.11v-80h9.11V88Zm261.35,50.44V125.73h6.06v-2.27h8.26v15Zm-9.42-15h7v15h-7Zm23.74,24H599.76v-7.59H623.5Zm-48.43-24h7.08v15h-7.08Zm19.63,16.38v-1.42H584.56V125.73h6.06v-2.27h6.79v33.06h-2.72v-9.09H575.07v-7.59Zm-44.43-16.38h7v15h-7ZM570,139.84v-1.42H559.73V125.73h6.06v-2.27h6.89v33.06H570v-9.09h-19.7v-7.59ZM525,123.46h7.45v15H525Zm20.18,16.38v-1.42H534.9V125.73H541v-2.27h7v33.06h-2.7v-9.09H525v-7.59ZM526,156.67H495.55v-2.31H526Zm-3.29-4.61h-24v-2.32h24Zm-20.38-23.95v19.32h-3.21v-24h6.11a5.17,5.17,0,0,0-2.9,4.65m16.26-1.2H505c.86-2.23,3.81-3.07,6.79-3.1s5.93,1.21,6.79,3.1m.13,0a4.07,4.07,0,0,0-2.28-3.45h6.18v24H504.75V128.29h14v-1.38Zm-42.89-3.45h7v15h-7ZM494,139.84v-1.42h-8.78V125.73h6.07v-2.27h5.41v24H475.83v-7.59Zm-43.06-16.38h7v15h-7Zm19.77,16.38v-1.42H460.38V125.73h6.07v-2.27h7v33.06H470.7v-9.09H450.94v-7.59ZM426,123.46h7.14v15H426Zm19.81,16.38v-1.42H435.54V125.73h6.07v-2.27h6.9v33.06h-2.73v-9.09H426v-7.59Zm-49,0h24.14v-1.42H410.69V125.69h6.06v-2.23h6.87v33.06h-2.71v-9.09H396.78Zm6.49-16.38h5v15h-5Zm213.83-47h-214l-4.75-2.84H329.92l3.3,2.63v84.06H687.13V76.21l3.25-2.57H621.87Z" style="fill:#014758"></path><path d="M637.19,98.92h6.07v-2.3h-8.48v15.13h2.41Z" style="fill:#014758"></path><path d="M637.19,122.68h6.07v-2.31h-8.48v15.14h2.41Z" style="fill:#014758"></path><path d="M668.8,98.92h6.06v-2.3h-8.47v15.13h2.41Z" style="fill:#014758"></path><path d="M668.8,122.68h6.06v-2.31h-8.47v15.14h2.41Z" style="fill:#014758"></path><path d="M657.05,95.26h-5v-7h5Zm1.65-8.89h-8.29V97.26h8.29Z" style="fill:#014758"></path><path d="M652.08,95.26h5v-7h-5Z" style="fill:#014758"></path><path d="M495.55,156.67H526v-2.31H495.55Z" style="fill:#014758"></path><path d="M498.67,152.06h24v-2.32h-24Z" style="fill:#014758"></path><path d="M364.1,59.23,384,71.36h4.77l-24.67-15h0l-24.67,15h4.77Z" style="fill:#014758"></path><path d="M631.3,71.35h4.77L656,59.22l19.91,12.13h4.77L656,56.33h0Z" style="fill:#014758"></path></g><g style="clip-path:url(#a)"><path d="M259.28,235l12.08-32.8L284.63,235Zm52.07,33.54q-3.12-2.43-5.34-7.84l-31.47-75.62h-2l-29.91,77a14.54,14.54,0,0,1-4.81,6.72c-2,1.48-7.46,2.36-10.63,2.57h0l-.73,0h-1c-3.41,0-5.79-.88-7-2.48s-1.86-5.28-1.86-11.05V207.24c0-6.72.66-11,2-12.73s4-2.64,8.08-2.64v-3.72c-.84,0-2,.08-3.55.12q-8.58.36-11.83.36-3.06,0-11.59-.3l-3.79-.18v3.72h1.69q4.56,0,6.48,2.19c1.29,1.47,1.92,4,1.92,7.48v26.61H156.12V207.24q0-10,2.08-12.7t8.14-2.67v-3.72c-.76,0-1.87.08-3.31.12q-8.82.36-12.19.36c-2,0-5.87-.1-11.59-.3l-3.78-.18v3.72h1.73q4.58,0,6.52,2.22t1.95,7.45v57.24q0,7.16-2.13,9.85t-7.72,2.71h-.35l.05,3.66q4.69-.18,8.56-.27t6.76-.09q2.88,0,6.76.09t8.74.27v-3.66h-1.21q-5.22,0-7.11-2.47t-1.9-11V233.07H206v25.71q0,7.22-2.1,9.88t-7.62,2.68h-.37V275q4.76-.18,8.59-.27t6.79-.09q2.82,0,6.64.09c2.25,0,5.37.14,8.34.14h0c.39,0,1.7,0,2.17,0,2.94-.08,7.13-.08,8.83-.13,2-.06,3.44-.09,4.45-.09q3.24,0,7,.09c2.48.06,5.15.15,8,.27l.06-3.66c-2.88-.28-4.84-.77-5.86-1.45a3.76,3.76,0,0,1-1.53-3.36,12.43,12.43,0,0,1,.18-2,14.21,14.21,0,0,1,.54-2.16l7.39-21.87H287l9.07,22a9.16,9.16,0,0,1,.57,1.62,6.08,6.08,0,0,1,.21,1.44,4.77,4.77,0,0,1-2.55,4.29,14,14,0,0,1-7.18,1.54V275q5-.18,9.49-.27c3-.06,5.83-.09,8.47-.09q1.92,0,5.52.09t8.95.27v-3.66a14.82,14.82,0,0,1-8.17-2.8" style="fill:#fff"></path></g><g style="clip-path:url(#b)"><path d="M457.74,253.12q-1.92,9.86-6.67,13.25t-19.88,3.39q-9.62,0-11.89-1.83T417,258.17V231.38h10.69q9.18,0,11.89,1.86c1.8,1.24,2.72,3.57,2.76,7H446c-.05-.48-.06-1.2-.06-2.16-.12-4.6-.18-7.81-.18-9.61,0-1.44,0-4.15.12-8.11,0-1.28.07-2.28.12-3h-3.61a6.56,6.56,0,0,0,.06.78,6.37,6.37,0,0,1,.06.72q0,4.74-3.48,6.54t-14,1.81c-.77,0-2,0-3.79-.06s-3.16-.06-4.2-.06V193.48h7.39q17,0,21.83,3.12t5.13,11.89h3.3c0-2.24-.09-5.35-.3-9.34s-.29-6.85-.29-8.62v-2.34q-9.91.24-18.44.36t-14.9.12q-6.42,0-12.46-.12c-3.58-.07-8-.24-11.46-.25h-.24c-2.33,0-6.41.08-8.58.14s-4.42.11-6.55.11q-2.52,0-5.85-.09t-7.42-.27l-.06,3.72c2.88.24,4.86.7,5.92,1.36a3.44,3.44,0,0,1,1.59,3.15,10.35,10.35,0,0,1-.33,2.34,29.11,29.11,0,0,1-1,3.19L350.7,261.77l-25.1-61c-.32-.79-.57-1.49-.75-2.07a5.12,5.12,0,0,1-.27-1.47,4.22,4.22,0,0,1,2.31-3.93q2.31-1.29,7.18-1.42v-3.66q-4.51.18-8.56.27c-2.71.06-5.25.09-7.66.09q-3.06,0-7.15-.09t-9.06-.27v3.72a14.72,14.72,0,0,1,8.22,2.86q3,2.43,5.77,9L346.26,277h2.82l32-73.21q3.36-7.81,6.09-9.79c1.81-1.31,5.59-2.05,8.9-2.18l1,0h1c3,0,5.24.86,6.54,2.34s2,4,2,7.45v57.24q0,7.16-2.13,9.85t-7.72,2.7h-.36v3.67q6.54-.24,13.3-.37t14-.11q5.65,0,14.42.08t20.6.28q.18-3.56,1.11-10.78t1.11-11Z" style="fill:#fff"></path><path d="M504.49,230.61a35.28,35.28,0,0,1-4.38-.27,34.64,34.64,0,0,1-4.51-.87l.06-37c1.56-.12,3-.21,4.36-.27s2.49-.09,3.45-.09q9.91,0,15.29,5.32t5.37,15.1q0,8.83-5,13.46t-14.63,4.62M612.27,197.3q-.15-5-.15-9.16-9.86.24-18.44.36t-14.89.12q-6.43,0-12.46-.12t-11.93-.36v3.72h1.75q4.56,0,6.51,2.23t2,7.44v57.25c0,4.77-.45,8.3-2.13,9.85-3.57,3.3-9.1,3.27-9.1,3.27h0c-4.88,0-10.09-.63-12.82-2.53s-6.12-6.47-10.12-13.72l-13.16-23.24q9.38-2.1,13.85-7.42t4.47-14.33q0-10.69-7.32-16.79t-20.37-6.09q-2.64,0-9.24.42t-10.57.42c-1.65,0-3.6,0-5.86-.12s-4.7-.2-7.3-.36v3.72h1.74q4.57,0,6.52,2.22c1.3,1.48,1.95,4,1.95,7.45v57.24q0,7.16-2.13,9.85t-7.72,2.71h-.36L475,275c3.12-.12,6-.21,8.56-.27s4.83-.09,6.76-.09,4.17,0,6.76.09,5.49.15,8.73.27v-3.66h-1.2c-3.48,0-5.85-.83-7.12-2.47s-1.89-5.3-1.89-11V235l2.59.18q6.54.42,7.38.84c1,.44,2.47,2.4,4.51,5.89q.48.84.78,1.32L522.21,262c3.28,5.44,6.49,8.59,9.61,10.53s7.25,2.92,12.37,2.92c1,0,4.06,0,5.18-.09.79,0,2.69-.16,4.23-.27,3.09-.12,6.88-.28,9.42-.34s4.84-.09,6.76-.09,4.17,0,6.76.09,5.49.15,8.74.27v-3.66h-1.21q-5.22,0-7.11-2.47t-1.9-11V231.33h11.35q9.14,0,11.84,2c1.8,1.32,2.78,3.91,2.94,7.75h3.42q0-.66-.06-1.92c-.12-4.85-.18-8.19-.18-10s.06-5,.18-9.6c0-1,.06-1.7.06-2.23H601v1.38q0,4.88-3.39,6.67t-14.27,1.8q-1.2,0-3.93-.06c-1.82,0-3.28-.06-4.36-.06V193.42h7.39q17.06,0,21.83,3.13t5.14,11.89h3.3q-.3-6.19-.45-11.14" style="fill:#fff"></path><path d="M632.13,229.35q0,18.68,10,30.87t24.92,12.2a28.29,28.29,0,0,0,22.41-10.48q8.94-10.49,9-26.52,0-19.39-9.88-31.93T663.36,191q-14.48,0-22.85,10.21t-8.38,28.17M665.82,277q-19.64,0-32.7-12.91t-13.06-32.13q0-19.23,12.67-32.38A41.66,41.66,0,0,1,664,186.4q20,0,33.12,12.89t13.13,32.52q0,19.41-12.64,32.29T665.82,277" style="fill:#fff"></path><path d="M864.35,261q-10.92,9.58-30.27,9.58-9.24,0-12.43-2.76c-2-1.78-3.1-5.35-3.17-10.68V242l0-48.38q4.86-.42,8.61-.63t6.94-.21q18.67,0,29.94,11.47t11.26,30.33q0,16.89-10.93,26.46M747.91,230.61a35.28,35.28,0,0,1-4.38-.27,32.76,32.76,0,0,1-4.51-.87l.06-37q2.34-.18,4.35-.27c1.35-.06,2.5-.09,3.46-.09q9.92,0,15.29,5.32t5.37,15.1q0,8.83-5,13.46t-14.63,4.62M882.4,212.46a38.68,38.68,0,0,0-10.66-14.09,43.41,43.41,0,0,0-15.19-7.92,72.55,72.55,0,0,0-20.48-2.53c-2.65,0-6.51.12-11.6.36-3.18.15-5.85.25-8,.31s-4.53-.05-6.74-.09q-6-.12-11.92-.36v0h0v3.72h1.75c3,0,5.21.75,6.51,2.23s2,4,2,7.44v56.23c0,.39,0,.77,0,1.15,0,4.69-.46,8.16-2.13,9.7-3.57,3.3-9.1,3.27-9.1,3.27h0c-4.89,0-10.09-.63-12.82-2.53s-6.12-6.47-10.12-13.72L760.7,232.42q9.38-2.1,13.85-7.42T779,210.67q0-10.69-7.32-16.79t-20.37-6.09q-2.64,0-9.25.41c-4.4.28-7.92.43-10.57.43q-2.46,0-5.85-.12t-7.3-.36v3.72h1.74c3,0,5.22.74,6.52,2.22s2,4,2,7.45v57.24q0,7.16-2.13,9.85c-1.42,1.81-4,2.7-7.72,2.7h-.36l.06,3.67c3.12-.12,6-.21,8.56-.27s4.84-.09,6.76-.09,4.17,0,6.75.09,5.5.15,8.74.27v-3.67H748c-3.48,0-5.86-.82-7.12-2.46s-1.89-5.3-1.89-11V235l2.58.18q6.55.42,7.39.84,1.44.66,4.51,5.89c.31.56.58,1,.78,1.32L765.63,262c3.28,5.44,6.48,8.59,9.61,10.53s7.25,2.92,12.37,2.92c1,0,4.06,0,5.18-.09.79,0,2.69-.16,4.22-.27,2.19-.09,4.7-.19,6.9-.26l1.88-.06c2.65-.06,5.11-.08,7.39-.08s5.82.09,10.72.3,8.68.29,11.32.29q24.27,0,37.66-11.83t13.39-33.15a42.35,42.35,0,0,0-3.87-17.81" style="fill:#fff"></path><path d="M380,319.18H378.9a19.25,19.25,0,0,0-7.54-8.39A23,23,0,0,0,359.68,308a19.32,19.32,0,0,0-14.91,6.34Q339,320.73,339,330.85q0,11.22,5.84,18.24a18.77,18.77,0,0,0,15.14,7,22.1,22.1,0,0,0,11.1-2.79,30.22,30.22,0,0,0,9.34-8.85v5.82a24.63,24.63,0,0,1-9.14,6.48,29.81,29.81,0,0,1-11.77,2.36q-12.27,0-20-7.37t-7.69-19a26.9,26.9,0,0,1,7.93-19.83q7.92-7.93,19.88-7.94,5.67,0,14.77,2.95,3.8,1.19,5.6,1.61-.08,2.13-.09,3.15c0,.68,0,1.33,0,1.95,0,.41,0,1.32.07,2.74,0,.76.05,1.37.08,1.83" style="fill:#fff"></path><path d="M396.11,330.64q0,11.17,6,18.46A18.55,18.55,0,0,0,417,356.4a16.9,16.9,0,0,0,13.4-6.27q5.35-6.27,5.35-15.86,0-11.61-5.91-19.1a18.39,18.39,0,0,0-15.07-7.49q-8.66,0-13.67,6.11t-5,16.85m20.15,28.49q-11.75,0-19.56-7.73a25.92,25.92,0,0,1-7.81-19.22,26.8,26.8,0,0,1,7.58-19.36A24.89,24.89,0,0,1,415.15,305q12,0,19.81,7.71t7.85,19.45q0,11.61-7.56,19.31a25.49,25.49,0,0,1-19,7.71" style="fill:#fff"></path><path d="M450.91,306c.43,0,1,.05,1.8.07q5.39.22,7.4.22t7.18-.18l2.27-.11v2.23q-3.29,0-4.69,1.35c-.95.89-1.42,2.38-1.42,4.44v32.47q0,5,2.24,6.67t9.43,1.7c4.67,0,7.88-.7,9.61-2.1s2.84-4,3.29-7.92h2.05v.25q-.15,8.44-.32,12.86-6.87,0-15.6-.16c-5.82-.09-9.36-.12-10.63-.12-1.56,0-4.58,0-9,.17l-3.56.11v-2.19h.25q3.3,0,4.55-1.6c.82-1.06,1.24-3,1.24-5.91V314c0-2.11-.38-3.6-1.14-4.48s-2-1.31-3.86-1.31h-1Z" style="fill:#fff"></path><path d="M496,306c.44,0,1,.05,1.8.07q5.38.22,7.4.22t7.19-.18l2.26-.11v2.23q-3.27,0-4.69,1.35c-.94.89-1.42,2.38-1.42,4.44v32.47q0,5,2.25,6.67t9.43,1.7q7,0,9.61-2.1t3.29-7.92h2v.25q-.14,8.44-.32,12.86-6.86,0-15.59-.16c-5.82-.09-9.37-.12-10.63-.12-1.56,0-4.58,0-9.06.17l-3.56.11v-2.19h.25c2.21,0,3.72-.53,4.55-1.6s1.24-3,1.24-5.91V314c0-2.11-.38-3.6-1.13-4.48s-2-1.31-3.86-1.31H496Z" style="fill:#fff"></path><path d="M540.72,357.94v-2.19h.21q3.35,0,4.62-1.62c.85-1.07,1.28-3,1.28-5.89V314c0-2.08-.39-3.56-1.17-4.45a5,5,0,0,0-3.9-1.33h-1V306c2.35.1,4.72.17,7.13.22s4.89.07,7.45.07,5.52,0,8.92-.07,7.07-.12,11-.22v1.4q0,1.59.18,5.16c.12,2.38.18,4.24.18,5.59h-2c-.15-3.5-1.17-5.87-3.08-7.12s-6.25-1.86-13-1.86h-4.42v20.07l2.51,0c1,0,1.81,0,2.27,0q6.28,0,8.37-1.08a4,4,0,0,0,2.08-3.92,3,3,0,0,0,0-.43,4.54,4.54,0,0,1,0-.46h2.15c0,.43,0,1-.07,1.79-.05,2.37-.07,4-.07,4.85,0,1.08,0,3,.11,5.75q0,.87,0,1.29h-2.15c0-2-.58-3.42-1.65-4.16s-3.45-1.12-7.12-1.12h-6.39v16c0,3.17.45,5.11,1.36,5.85s3.28,1.09,7.12,1.09q9,0,11.89-2t4-7.92h1.9q-.11,2.26-.67,6.59c-.36,2.89-.59,5-.66,6.45q-7.08-.11-12.32-.16t-8.62-.06c-2.9,0-5.7,0-8.39.07s-5.35.13-8,.22" style="fill:#fff"></path><path d="M636.3,309.12c0,1,0,1.89-.06,2.78s0,1.85,0,2.86c0,.72,0,1.4,0,2.05s0,1.3.06,2h-2a15.28,15.28,0,0,0-6.23-8.24q-4.26-2.64-11.37-2.64-9.84,0-15.88,6.2t-6,16.32q0,10.84,6.79,18.12a22.21,22.21,0,0,0,17,7.28,23.82,23.82,0,0,0,5.89-.72,28.78,28.78,0,0,0,5.82-2.22V342.06q0-3.27-1-4.29c-.69-.68-2-1-3.9-1H625v-2.11l4.24.12c1.87.06,3.22.09,4.06.09s2.22,0,4.15-.09l4.29-.12v2.11h-.43q-2.73,0-3.72.9c-.66.6-1,1.73-1,3.38v13.76A64.71,64.71,0,0,1,626.09,358a46.37,46.37,0,0,1-9.73,1.1q-12.58,0-20.53-7.83t-8-20.12a24.57,24.57,0,0,1,8-18.83q7.95-7.39,20.46-7.4,6.6,0,17.92,3.49c.91.28,1.61.51,2.09.68" style="fill:#fff"></path><path d="M650.7,357.94v-2.19h.22q3.33,0,4.61-1.62c.85-1.07,1.28-3,1.28-5.89V314c0-2.08-.39-3.56-1.17-4.45a5,5,0,0,0-3.9-1.33h-1V306q3.52.15,7.13.22t7.46.07q3.81,0,8.91-.07t11-.22v1.4q0,1.59.18,5.16c.12,2.38.18,4.24.18,5.59h-2c-.14-3.5-1.17-5.87-3.07-7.12s-6.26-1.86-13.06-1.86h-4.42v20.07l2.52,0c1,0,1.8,0,2.26,0q6.28,0,8.37-1.08a4,4,0,0,0,2.08-3.92c0-.09,0-.23,0-.43a3,3,0,0,1,0-.46h2.16c0,.43,0,1-.08,1.79,0,2.37-.07,4-.07,4.85,0,1.08,0,3,.11,5.75,0,.58,0,1,0,1.29h-2.16c0-2-.57-3.42-1.65-4.16s-3.45-1.12-7.11-1.12h-6.4v16c0,3.17.45,5.11,1.37,5.85s3.28,1.09,7.11,1.09q9,0,11.89-2t4-7.92h1.9q-.11,2.26-.66,6.59t-.67,6.45q-7.07-.11-12.32-.16t-8.62-.06c-2.9,0-5.69,0-8.39.07s-5.35.13-8,.22" style="fill:#fff"></path><path d="M634.78,120.37h8.48v2.31H637.2v12.83h-2.42Zm0-23.75h8.48v2.3H637.2v12.83h-2.42Zm15.63-10.25h8.29V97.26h-8.29Zm16,34h8.48v2.31H668.8v12.83h-2.41Zm0-23.75h8.48v2.3H668.8v12.83h-2.41Zm-263.12,20.6V120H625.32v36.48h9.46V145.05h8.48v2.3H637.2v9.17h29.19V145.05h8.48v2.3H668.8v9.17H684V76.47h-9.16v2.35h-6.07V88H666.4V76.47H643.26v2.35H637.2V88h-2.42V76.47h-9.45V117H403.27Z" style="fill:#fff"></path><path d="M403.27,138.42h5v-15h-5Z" style="fill:#fff"></path><path d="M475.84,147.43h20.87v-24h-5.43v2.27h-6.06v12.69H494v1.42H475.84Z" style="fill:#fff"></path><path d="M499.12,147.43h3.21V128.11a5.16,5.16,0,0,1,2.9-4.65h-6.11Z" style="fill:#fff"></path><path d="M353.9,96.61v2.31h-6.07v12.83h-2.41V96.61Zm0,26.07h-6.07v12.83h-2.41V120.37h8.48ZM377,120.37h8.47v2.31h-6.06v12.83H377Zm0-23.76h8.47v2.31h-6.06v12.83H377Zm-40.72-20.1v80h9.11V145h8.48v2.31h-6.07v9.17H377V145h8.47v2.31h-6.06v9.17H395v-80h-9.44v2.3h-6.07V88H377V76.51H353.9v2.3h-6.07V88h-2.41V76.51Z" style="fill:#fff"></path><path d="M494.68,43.26h0Z" style="fill:#fff"></path><path d="M517,138.47h-1.83V130H517Zm-8.28,0h-1.82V130h1.82Zm-4-10.22s0,0,0,0v19.11h17.88v-24h-6.17a4.13,4.13,0,0,1,2.27,3.46h0v1.38Z" style="fill:#fff"></path><path d="M475.84,138.42h7v-15h-7Z" style="fill:#fff"></path></g><g style="clip-path:url(#a)"><path d="M656,56.33l24.67,15h-4.77L656,59.23l-19.9,12.12H631.3l24.67-15h0ZM621.86,73.64h68.5L656,52.72,639.57,62.79h0Z" style="fill:#fff"></path><path d="M494.76,41.41l9.36-1.72h15.35l-7.54-4.86V22c-.08,0-.18,0-.19.12s-.9,11.4-.9,11.4-1.46.14-1.46.75v.65l-14.66,6.5h0Z" style="fill:#fff"></path></g><g style="clip-path:url(#b)"><path d="M615.24,80v2.35h-6.06v8h-2.41V80H590.61v2.35h-6.06v8h-2.42V80H565.78v2.35h-6.07v8H557.3V80H540.94v2.35h-6.06v8h-2.41V80H516.11v2.35H510v8h-2.41V80H491.27v2.35h-6.06v8H482.8V80H466.44v2.35h-6.07v8H458V80H441.6v2.35h-6.06v8h-2.41V80H416.77v2.35H410.7v8h-2.41V80h-5v32.76h5V97.94h8.47v2.31h-6.06v12.48h22.44V97.94h8.47v2.31h-6.06v12.48H458V97.94h8.48v2.31h-6.07v12.48h22.43V97.94h8.47v2.31h-6.06v12.48h22.44V97.94h8.47v2.31h-6.06v12.48h22.42V97.94H541v2.31H534.9v12.48h22.41V97.94h8.48v2.31h-6.06v12.48h22.42V97.94h8.47v2.31h-6.06v12.48h22.21V97.94h8.47v2.31h-6.06v12.48H619.5l4,4V77.58L619.56,80Z" style="fill:#fff"></path><path d="M498.19,46.47l5-.84v2l-3.31.57V60.27h-1.66Zm9.46-.91h8.48v2.31h-6.07v12.4h-2.41Zm-11,17.23,8.51,5.95h14.47V41.64H504.12L496.59,43v1.07h0V62.79h0Z" style="fill:#fff"></path><path d="M364.1,56.33h0l24.67,15H384L364.1,59.23,344.2,71.36h-4.77Zm-34.18,17.3h68.39l4.75,2.84h214l4.76-2.83H398.33L364.09,52.81,329.9,73.63h0Z" style="fill:#fff"></path><path d="M450.94,138.42h7v-15h-7Z" style="fill:#fff"></path><path d="M575.07,138.42h7.07v-15h-7.07Z" style="fill:#fff"></path><path d="M623.5,123.46h-8.26v2.27h-6.06v12.69H623.5Z" style="fill:#fff"></path><path d="M599.77,138.42h7v-15h-7Z" style="fill:#fff"></path><path d="M575.07,147.43H594.7v9.09h2.7V123.46h-6.78v2.27h-6.06v12.69H594.7v1.42H575.07Z" style="fill:#fff"></path><path d="M525,147.43h20.18v9.09h2.71V123.46h-7v2.27H534.9v12.69h10.32v1.42H525Z" style="fill:#fff"></path><path d="M550.27,147.43H570v9.09h2.71V123.46h-6.89v2.27h-6.06v12.69H570v1.42h-19.7Z" style="fill:#fff"></path><path d="M550.27,138.42h7.05v-15h-7.05Z" style="fill:#fff"></path><path d="M525,138.42h7.45v-15H525Z" style="fill:#fff"></path><path d="M599.77,147.43H623.5v-7.59H599.77Z" style="fill:#fff"></path><path d="M450.94,147.43H470.7v9.09h2.71V123.46h-7v2.27h-6.07v12.69h10.33v1.42H450.94Z" style="fill:#fff"></path></g><g style="clip-path:url(#a)"><path d="M426,138.42h7.14v-15H426Z" style="fill:#fff"></path><path d="M639.57,62.79H527.17V44.14l1.94-.84V41.43l-14.6-6.5s0-.3,0-.66c0-.61-1.46-.74-1.46-.74s-.89-11.27-.9-11.42-.21-.11-.21-.11h0V34.83l7.54,4.86H504.12l-9.37,1.72h-.07v1.85l1.9.82h0V43h0l7.53-1.39h15.46v27.1H505.11l-8.51-5.95H380.52l17.81,10.84H621.86Z" style="fill:#fff"></path></g><g style="clip-path:url(#b)"><path d="M505,126.91h13.58c-.86-1.89-3.82-3.06-6.79-3.09s-5.93.86-6.79,3.09" style="fill:#fff"></path><path d="M510.06,47.87h6.07V45.56h-8.48V60.27h2.41Z" style="fill:#fff"></path><path d="M499.85,48.18l3.31-.56v-2l-5,.84v13.8h1.66Z" style="fill:#fff"></path><path d="M345.42,111.75h2.41V98.92h6.07v-2.3h-8.48Z" style="fill:#fff"></path><path d="M345.42,135.51h2.41V122.68h6.07v-2.31h-8.48Z" style="fill:#fff"></path><path d="M379.44,98.92h6.06v-2.3H377v15.13h2.41Z" style="fill:#fff"></path><path d="M379.44,122.68h6.06v-2.31H377v15.14h2.41Z" style="fill:#fff"></path><path d="M420.91,156.52h2.71V123.46h-6.87v2.23h-6.06v12.73h10.23v1.42H396.78v7.59h24.13Z" style="fill:#fff"></path><path d="M426,147.43h19.79v9.09h2.73V123.46H441.6v2.27h-6.06v12.69H445.8v1.42H426Z" style="fill:#fff"></path><path d="M506.91,138.51h1.82V130h-1.82Z" style="fill:#fff"></path><path d="M515.18,138.47H517V130h-1.83Z" style="fill:#fff"></path><path d="M370.89,56.93V48.77h-13.6v8.17l6.8-4.14Z" style="fill:#fff"></path><path d="M662.77,56.84l0-8.17H649.17v8.21h0L656,52.71Z" style="fill:#fff"></path><path d="M623.5,116.78l-4-4H609.18V100.25h6.06V97.94h-8.47v14.79H584.56V100.25h6.06V97.94h-8.47v14.79H559.73V100.25h6.06V97.94h-8.47v14.79H534.9V100.25H541V97.94h-8.47v14.79H510.07V100.25h6.06V97.94h-8.47v14.79H485.22V100.25h6.07V97.94h-8.48v14.79H460.38V100.25h6.07V97.94H458v14.79H435.54V100.25h6.07V97.94h-8.48v14.79H410.69V100.25h6.06V97.94h-8.47v14.79h-5V80h5V90.36h2.41v-8h6.07V80h16.36V90.36h2.41v-8h6.06V80H458V90.36h2.41v-8h6.07V80H482.8V90.36h2.41v-8h6.06V80h16.36V90.36H510v-8h6.07V80h16.36V90.36h2.41v-8h6.06V80H557.3V90.36h2.41v-8h6.07V80h16.36V90.36h2.4v-8h6.07V80h16.16V90.36h2.41v-8h6.06V80h4.32l3.94-2.38Zm1.83-40.3h9.45V88h2.42V78.81h6.06V76.47H666.4V88h2.41V78.81h6.07V76.47H684v80.05H668.8v-9.17h6.07v-2.3h-8.48v11.47H637.2v-9.17h6.06v-2.3h-8.48v11.47h-9.46V120H403.27V117H625.33ZM347.83,88V78.81h6.07v-2.3H377V88h2.41V78.81h6.07v-2.3H395v80H379.44v-9.17h6.06v-2.3H377v11.47h-29.2v-9.17h6.07v-2.3h-8.48v11.47h-9.11v-80h9.11V88Zm261.35,50.44V125.73h6.06v-2.27h8.26v15Zm-9.42-15h7v15h-7Zm23.74,24H599.76v-7.59H623.5Zm-48.43-24h7.08v15h-7.08Zm19.63,16.38v-1.42H584.56V125.73h6.06v-2.27h6.79v33.06h-2.72v-9.09H575.07v-7.59Zm-44.43-16.38h7v15h-7ZM570,139.84v-1.42H559.73V125.73h6.06v-2.27h6.89v33.06H570v-9.09h-19.7v-7.59ZM525,123.46h7.45v15H525Zm20.18,16.38v-1.42H534.9V125.73H541v-2.27h7v33.06h-2.7v-9.09H525v-7.59ZM526,156.67H495.55v-2.31H526Zm-3.29-4.61h-24v-2.32h24Zm-20.38-23.95v19.32h-3.21v-24h6.11a5.17,5.17,0,0,0-2.9,4.65m16.26-1.2H505c.86-2.23,3.81-3.07,6.79-3.1s5.93,1.21,6.79,3.1m.13,0a4.07,4.07,0,0,0-2.28-3.45h6.18v24H504.75V128.29h14v-1.38Zm-42.89-3.45h7v15h-7ZM494,139.84v-1.42h-8.78V125.73h6.07v-2.27h5.41v24H475.83v-7.59Zm-43.06-16.38h7v15h-7Zm19.77,16.38v-1.42H460.38V125.73h6.07v-2.27h7v33.06H470.7v-9.09H450.94v-7.59ZM426,123.46h7.14v15H426Zm19.81,16.38v-1.42H435.54V125.73h6.07v-2.27h6.9v33.06h-2.73v-9.09H426v-7.59Zm-49,0h24.14v-1.42H410.69V125.69h6.06v-2.23h6.87v33.06h-2.71v-9.09H396.78Zm6.49-16.38h5v15h-5Zm213.83-47h-214l-4.75-2.84H329.92l3.3,2.63v84.06H687.13V76.21l3.25-2.57H621.87Z" style="fill:#fff"></path><path d="M637.19,98.92h6.07v-2.3h-8.48v15.13h2.41Z" style="fill:#fff"></path><path d="M637.19,122.68h6.07v-2.31h-8.48v15.14h2.41Z" style="fill:#fff"></path><path d="M668.8,98.92h6.06v-2.3h-8.47v15.13h2.41Z" style="fill:#fff"></path><path d="M668.8,122.68h6.06v-2.31h-8.47v15.14h2.41Z" style="fill:#fff"></path><path d="M657.05,95.26h-5v-7h5Zm1.65-8.89h-8.29V97.26h8.29Z" style="fill:#fff"></path><path d="M652.08,95.26h5v-7h-5Z" style="fill:#fff"></path><path d="M495.55,156.67H526v-2.31H495.55Z" style="fill:#fff"></path><path d="M498.67,152.06h24v-2.32h-24Z" style="fill:#fff"></path><path d="M364.1,59.23,384,71.36h4.77l-24.67-15h0l-24.67,15h4.77Z" style="fill:#fff"></path><path d="M631.3,71.35h4.77L656,59.22l19.91,12.13h4.77L656,56.33h0Z" style="fill:#fff"></path></g></svg> 