<svg version="1.0" xmlns="http://www.w3.org/2000/svg" width="720" height="720" viewBox="0 0 540 540" preserveAspectRatio="xMidYMid meet"><g fill="#000" stroke="none"><path d="M0 82.9v82.9l54.8.4c52 .5 55.1.6 62.5 2.6 18.3 5 32.8 16 40.3 30.6l3.9 7.5 5-5.7c10.6-12 21.3-20.5 34-26.9 31.1-15.8 69.8-16.3 101-1.3 15.7 7.6 15.5 4.8 2.5 25.3-6.2 9.7-11.7 17.7-12.1 17.7-.5 0-3-1.4-5.6-3-12.1-7.7-34.6-11.1-49.8-7.6-32.2 7.6-55.1 37.3-53.2 69.1 1.2 19.5 10 36.4 25.2 48.8 12.2 9.9 27 14.9 43.5 14.9 18 0 33.1-6.3 46.1-19.2 12-11.9 16.1-21.4 23-52.3 8.3-37.2 16.1-53.4 35.1-72.5 25.1-25.3 59.9-36.3 97.1-30.7 15.3 2.3 35.2 9.8 43.4 16.3l2.2 1.7-10.5 16.5c-5.8 9.1-10.9 17.1-11.3 17.9-.7 1.1-2 .6-6.8-2.3-3.4-2.1-9.6-4.9-13.9-6.4-6.9-2.2-9.5-2.6-20.9-2.6-11.5 0-14 .3-21.2 2.7-16.9 5.6-31.1 18.2-38.8 34.2-5.6 11.6-7 17.7-6.9 30 .2 49.2 50.4 81.9 93.3 60.8 11-5.4 20.3-15 26.4-27.2 2.6-5.1 4.7-9.9 4.7-10.7 0-1.2-5.3-1.4-32.1-1.4-19.1 0-31.9-.4-31.7-.9.2-.5 5.7-9.5 12.3-20l12-19 42.7-.1h42.7l.4 4.2c.2 2.4.4-54.5.5-126.5L540 0H0v82.9z"/><path d="M46 227.9V251h28.3c27.7 0 28.3-.1 33.4-2.4 14.5-6.8 17.1-26.1 5.1-37.3-5.7-5.3-8.2-5.7-38.5-6.1l-28.3-.4v23.1zm492.7 59.8c-.9 8.3-5.1 22.2-9.6 31.7-10.8 22.5-27.9 39.7-50.5 50.6-17.1 8.3-33.9 11.3-55.4 9.8-29.9-2-59.7-17.6-77.3-40.4l-4.3-5.6-3 3.8c-17.1 21.7-41.3 36.3-67.6 41-11.1 1.9-31.3 1.9-41.6-.1-21.4-4.1-38.9-12.8-54.4-27.2l-7.3-6.8-2.1 3c-5.1 7.4-15.6 16.4-23.8 20.5-15.6 7.7-12.2 7.3-80.6 7.7l-61.2.4V540h540V411c0-71-.2-129-.4-129s-.6 2.6-.9 5.7zM46 313.5V337h32.8c36.9 0 39.2-.3 45.7-6.7 4.9-4.8 7.5-10.6 7.5-17.1 0-9.3-4.8-16.8-13.5-20.8-4.9-2.3-5.4-2.4-38.7-2.4H46v23.5z"/></g></svg>