<?xml version="1.0" encoding="UTF-8"?> <svg xmlns="http://www.w3.org/2000/svg" viewBox="0 0 77.8 50.5"><defs><style>.a{fill:#fff;}.b{fill:#c9fb36;fill-rule:evenodd;}</style></defs><path class="a" d="M36.3,29.5A4.08,4.08,0,0,0,39.5,28l-1.3-.9a2.35,2.35,0,1,1-.4-3.3c.1.1.3.2.4.4l1.3-1a4.12,4.12,0,0,0-3.1-1.4,3.91,3.91,0,0,0-4.1,3.7,3.85,3.85,0,0,0,3.59,4.09H36Z"></path><path class="a" d="M51.2,29.4h2.5c2.7,0,4.4-1.5,4.4-3.7s-1.7-3.8-4.4-3.8H51.2Zm1.6-1.5V23.4h.9c1.9,0,2.7.9,2.7,2.3s-.8,2.2-2.7,2.2Z"></path><path class="a" d="M60.2,29.4h6.4V27.9H61.8V26.2h3.5V24.8H61.8V23.5h4.8V22H60.2Z"></path><path class="a" d="M19.2,40.2a4.08,4.08,0,0,0,3.2-1.5l-1.3-1a2.35,2.35,0,1,1-.4-3.3c.1.1.3.2.4.4l1.3-1a4.12,4.12,0,0,0-3.1-1.4,3.91,3.91,0,0,0-3.9,3.9,3.82,3.82,0,0,0,3.74,3.9Z"></path><path class="a" d="M23.2,40.1H25l.8-1.4h3.6l.7,1.4h1.7l-4.3-7.8Zm3.3-2.8,1-2,1,2Z"></path><path class="a" d="M40,40.1l-2.8-2.8c1.6-.1,2.5-.8,2.5-2.3s-1.1-2.3-2.8-2.3H33.3v7.4h1.6V37l2.9,3.1Zm-5-6h2c.6,0,1,.3,1,.9a.9.9,0,0,1-.77,1H34.9Z"></path><path class="a" d="M42.3,40.1h3.8c1.7,0,2.6-.7,2.6-2.1a1.76,1.76,0,0,0-1.2-1.9,1.66,1.66,0,0,0,.9-1.5c0-1.2-.9-1.9-2.6-1.9H42.3Zm1.5-4.7V34.1h1.8c.7,0,1,.2,1,.7s-.4.7-1,.7Zm0,3.2V36.9H46c.7,0,1,.3,1,.9s-.4.9-1,.9Z"></path><path class="a" d="M60.2,40.1h1.6v-5l3.8,5h1.6V32.7H65.6v5l-3.8-5H60.2Z"></path><path class="b" d="M37.6,17a2.33,2.33,0,1,1-2.25-4.08,1.15,1.15,0,0,1,.25-.12,2.42,2.42,0,0,1,3.1,1A2.46,2.46,0,0,1,37.6,17Zm.7,1.4a4,4,0,0,1-3.7-7.1h0A4.09,4.09,0,0,1,40,13a4,4,0,0,1-.3,4.2L43.6,22h0a4,4,0,0,1,4.9,6l3.9,4.8h0a4.16,4.16,0,1,1-1.3,1.1l-3.9-4.7h-.1a3.91,3.91,0,0,1-5.24-1.77l-.06-.13a3.8,3.8,0,0,1,.5-4.2Zm13.6,18A2.35,2.35,0,1,0,54.2,34,2.58,2.58,0,0,0,51.9,36.4Z"></path></svg> 