<?xml version="1.0" encoding="UTF-8"?> <svg xmlns="http://www.w3.org/2000/svg" viewBox="0 0 1711.69 1711.69"><circle cx="856.17" cy="856.7" r="855.85" style="fill:#fff"></circle><path d="M1356.64,499.21,1117.18,264a34.32,34.32,0,0,0-24.07-9.84H487.72A128.27,128.27,0,0,0,359.59,382.32v915.85A128.28,128.28,0,0,0,487.72,1426.3h751.06a128.28,128.28,0,0,0,128.13-128.13V523.72A34.37,34.37,0,0,0,1356.64,499.21ZM1127.45,370.39l121.15,119H1138.37a10.93,10.93,0,0,1-10.92-10.92Zm111.33,987.23H487.72a59.52,59.52,0,0,1-59.45-59.45V382.32a59.51,59.51,0,0,1,59.45-59.45h571.06V478.46a79.68,79.68,0,0,0,79.6,79.59h159.85v740.12A59.51,59.51,0,0,1,1238.78,1357.62ZM1101.64,799H617.57a34.34,34.34,0,1,0,0,68.67h484.07a34.34,34.34,0,1,0,0-68.67Zm-484.07,206h394.7a34.34,34.34,0,0,0,0-68.68H617.57a34.34,34.34,0,0,0,0,68.68Zm442.32,68.68H617.57a34.34,34.34,0,0,0,0,68.68h442.32a34.34,34.34,0,0,0,0-68.68Z" style="fill:#073e47;opacity:0.05"></path><path d="M825.67,923C881.1,850,905,809.56,903.32,765.46c-1.78-53.67-41.47-89.18-96.79-87.59-42.21,1.4-84.65,23.18-126.94,64.8L643,671.55c47.42-46.43,109.48-75.34,173.1-75.34,103.41,0,174.75,65.32,174.75,166.56,0,61.36-31.69,117.36-112.14,223.42l-94.06,116h224.89v78.29H628.58C691.58,1099.17,767.39,998.78,825.67,923Z" style="fill:#053541"></path><path d="M1109.87,1081.64h101.9v98.94h-101.9Z" style="fill:#053541"></path></svg> 