<?xml version="1.0" encoding="UTF-8"?> <svg xmlns="http://www.w3.org/2000/svg" viewBox="0 0 1711.69 1711.69"><circle cx="855.85" cy="855.85" r="855.85" style="fill:#fff"></circle><g style="opacity:0.05"><path d="M1476.31,457.84l-.4-.17-.13-.05L869.06,231a37.78,37.78,0,0,0-26.42,0L235.92,457.62l-.14.05-.37.16A37.75,37.75,0,0,0,211.72,488c0,.29-.07.58-.1.88a35.91,35.91,0,0,0-.25,4v684.83a37.75,37.75,0,0,0,20.93,33.8L839,1513.66l.1,0a38.29,38.29,0,0,0,16.73,3.91,39.07,39.07,0,0,0,13.21-2.39l606.72-226.57a37.78,37.78,0,0,0,24.55-35.38V493A37.8,37.8,0,0,0,1476.31,457.84Zm-329-42.28-491,189.18-93.23-34.81,486-191ZM591.6,661.19c0,.58-.09,1.14-.09,1.72v146.6L516,771.75V633ZM855.85,306.73l87.39,32.63L457.87,530.13,357.4,492.87ZM591.51,1306.05,516,1268.44V1163.33l75.52,37.76Zm226.58,112.81L667,1343.65v-165.9A37.77,37.77,0,0,0,646.16,1144l-151-75.52c-25.09-12.55-54.65,5.75-54.65,33.78v128.61l-153.57-76.47v-607l153.57,57.35V795.09a37.76,37.76,0,0,0,20.88,33.78l151.05,75.52c25,12.53,54.65-5.71,54.65-33.77V689.36l151.05,56.41Zm37.79-739.61L763.2,644.49,1254,455.4,1354.63,493Zm568.93,547.82-531.2,198.37V745.77l531.2-198.37v679.67Z" style="fill:#073e47"></path></g><path d="M780.24,630.27l89.06-25.72v585.2H780.24Z" style="fill:#053541"></path><path d="M1011.54,1090.88h101.91v98.94H1011.54Z" style="fill:#053541"></path></svg> 