<?xml version="1.0" encoding="UTF-8"?> <svg xmlns="http://www.w3.org/2000/svg" viewBox="0 0 1711.69 1711.69"><circle cx="855.85" cy="855.85" r="855.85" style="fill:#067e7a"></circle><g style="opacity:0.5"><g style="opacity:0.2"><path d="M1142.82,752.09l-126.45-134a20.5,20.5,0,1,0-29.82,28.15l113.17,119.88L986.55,886.06a20.51,20.51,0,0,0,29.83,28.16l126.44-134A20.51,20.51,0,0,0,1142.82,752.09Z" style="fill:#073e47"></path><path d="M763.49,886.05,650.33,766.16,763.49,646.27a20.51,20.51,0,1,0-29.83-28.15l-126.44,134a20.5,20.5,0,0,0,0,28.15l126.45,134a20.51,20.51,0,0,0,29.82-28.16Z" style="fill:#073e47"></path><path d="M908.19,549a20.53,20.53,0,0,0-23.37,17.18L824.68,959.91a20.5,20.5,0,1,0,40.54,6.19l60.15-393.69A20.51,20.51,0,0,0,908.19,549Z" style="fill:#073e47"></path><path d="M1395.52,1188.91v-721a93.4,93.4,0,0,0-88.12-97.73H426.12A93.41,93.41,0,0,0,338,467.87v721a93.43,93.43,0,0,0,88.13,97.76h282v35.25H637.62a70.5,70.5,0,0,0-70.5,70.5V1410a17.63,17.63,0,0,0,17.63,17.63h564a17.62,17.62,0,0,0,17.62-17.63v-17.62a70.49,70.49,0,0,0-70.5-70.5h-70.5v-35.25h282A93.42,93.42,0,0,0,1395.52,1188.91Zm-299.63,168.26a35.25,35.25,0,0,1,35.25,35.25H602.37a35.25,35.25,0,0,1,35.25-35.25Zm-352.51-35.25v-35.25H990.14v35.25Zm564-70.5H426.12a58.39,58.39,0,0,1-52.88-62.5v-43.26h987v43.26A58.37,58.37,0,0,1,1307.4,1251.42Zm52.87-783.55v642.54h-987V467.87a58.36,58.36,0,0,1,52.88-62.48H1307.4A58.35,58.35,0,0,1,1360.27,467.87Z" style="fill:#073e47"></path></g></g><path d="M867.43,1007.48H610.5v-66.7L890.74,586.57h65.74v344.6h86.32v76.31H956.48v154.87H867.43Zm0-76.31V725.68L702.58,931.17Z" style="fill:#fff"></path><path d="M1142.4,1063.48h101.9v98.94H1142.4Z" style="fill:#fff"></path></svg> 