<?xml version="1.0" encoding="UTF-8"?> <svg xmlns="http://www.w3.org/2000/svg" viewBox="0 0 1711.69 1711.69"><circle cx="857.12" cy="855.85" r="855.85" style="fill:#fff"></circle><g style="opacity:0.5"><g style="opacity:0.2"><path d="M620.86,461.74a25.28,25.28,0,0,0-33.15.26l-69.08,61.81v-8.1a17.16,17.16,0,1,0-34.32,0v38.84l-28.61,25.6a17.16,17.16,0,0,0,22.89,25.58L604.44,493.08,730.28,605.73a17.17,17.17,0,1,0,22.9-25.58Z" style="fill:#073e47"></path><path d="M707.41,627.26a17.16,17.16,0,0,0-17.16,17.16V764.55H518.63V644.42a17.16,17.16,0,1,0-34.32,0v131a23.73,23.73,0,0,0,24,23.43H700.55a23.79,23.79,0,0,0,24-23.48v-131A17.16,17.16,0,0,0,707.41,627.26Z" style="fill:#073e47"></path><path d="M604.44,833.2A120.13,120.13,0,1,0,724.57,953.33,120.13,120.13,0,0,0,604.44,833.2ZM518.63,953.33a86,86,0,0,1,68.65-84.09V943.6l-63.5,38.08A84.61,84.61,0,0,1,518.63,953.33Zm22.84,57.78,60.31-36.19,49.91,49.91A85,85,0,0,1,541.47,1011.11ZM676,1000.56,621.6,946.23v-77A85.64,85.64,0,0,1,676,1000.56Z" style="fill:#073e47"></path><path d="M1290.91,695.91V637.16a27.09,27.09,0,0,0-27.07-27.06H1215a27.08,27.08,0,0,0-27.06,27.06v58.75h-34.33V588.3a29.73,29.73,0,0,0-29.69-29.69h-43.59a29.73,29.73,0,0,0-29.69,29.69V695.91h-34.32V507.13A34.32,34.32,0,0,0,982,472.81H947.67a34.32,34.32,0,0,0-34.32,34.32V695.91H896.19A17.16,17.16,0,0,1,879,678.75V472.81a17.17,17.17,0,0,0-34.33,0V678.75a51.48,51.48,0,0,0,51.49,51.48h394.72a17.16,17.16,0,0,0,0-34.32Zm-308.91,0H947.67V507.13H982Zm137.29,0H1085v-103h34.32Zm137.29,0h-34.32V644.42h34.32v51.49Z" style="fill:#073e47"></path><path d="M1290.91,1039.14H896.19A17.16,17.16,0,0,1,879,1022V994.76l56.51-56.51a17.52,17.52,0,0,1,24.27,0l20.11,20.11a51.48,51.48,0,0,0,72.8,0l71.6-71.6a17.53,17.53,0,0,1,24.26,0l20.12,20.14a51.58,51.58,0,0,0,72.79,0L1303,845.35a17.16,17.16,0,0,0-24.27-24.26l-61.54,61.52a17.17,17.17,0,0,1-24.27,0l-20.11-20.11a52.71,52.71,0,0,0-72.8,0l-71.6,71.6a17.17,17.17,0,0,1-24.27,0L984.09,914a52.75,52.75,0,0,0-72.82,0L879,946.23V816a17.17,17.17,0,0,0-34.33,0V1022a51.49,51.49,0,0,0,51.49,51.49h394.72a17.17,17.17,0,0,0,0-34.33Z" style="fill:#073e47"></path><path d="M1393.88,1184.23V482.16A91,91,0,0,0,1308.07,387H450a91,91,0,0,0-85.81,95.16v702.07A90.94,90.94,0,0,0,450,1279.4H724.57v34.33H655.93a68.64,68.64,0,0,0-68.65,68.64v17.16a17.16,17.16,0,0,0,17.16,17.17h549.17a17.16,17.16,0,0,0,17.16-17.17v-17.16a68.64,68.64,0,0,0-68.64-68.64h-68.65V1279.4h274.59A91,91,0,0,0,1393.88,1184.23Zm-291.75,163.82a34.33,34.33,0,0,1,34.32,34.33H621.6a34.33,34.33,0,0,1,34.33-34.33ZM758.9,1313.73V1279.4H999.16v34.33Zm549.17-68.65H450a56.84,56.84,0,0,1-51.49-60.85v-42.12h961.05v42.12A56.83,56.83,0,0,1,1308.07,1245.08Zm51.48-762.92v625.63h-961V482.16A56.83,56.83,0,0,1,450,421.32h858.08A56.83,56.83,0,0,1,1359.55,482.16Z" style="fill:#073e47"></path></g></g><path d="M641.7,1011.9c40.17,35.51,102.18,59.3,152.34,59.3,80,0,127.75-43,127.75-114.2,0-102.33-112.49-148.74-247.56-92.19l-.79-298.7H970.33v79.76H758.66v130.7c155.54-25.71,252.5,49,252.5,176.92,0,115.87-83.55,197.7-209.45,197.7-57.37,0-123.85-21.07-160-46Z" style="fill:#053541"></path><path d="M1119.82,1043.23h101.9v98.93h-101.9Z" style="fill:#053541"></path></svg> 