<?xml version="1.0" encoding="UTF-8"?> <svg xmlns="http://www.w3.org/2000/svg" viewBox="0 0 1711.69 1711.69"><circle cx="855.85" cy="856.7" r="855.85" style="fill:#067e7a"></circle><g style="opacity:0.5"><g style="opacity:0.2"><path d="M1504.74,843.15,1203.1,523.57A48.91,48.91,0,1,0,1132,590.71l270,286-270,286a48.92,48.92,0,0,0,71.14,67.18l301.65-319.6A48.93,48.93,0,0,0,1504.74,843.15Z" style="fill:#073e47"></path></g><g style="opacity:0.2"><path d="M599.83,1162.71l-269.94-286,269.94-286a48.92,48.92,0,0,0-71.15-67.15L227,843.13a49,49,0,0,0,0,67.16l301.66,319.6a48.92,48.92,0,0,0,71.14-67.18Z" style="fill:#073e47"></path></g><g style="opacity:0.2"><path d="M945,358.76a49,49,0,0,0-55.75,41L745.79,1338.9a48.93,48.93,0,0,0,41,55.75,51,51,0,0,0,7.45.55,48.94,48.94,0,0,0,48.3-41.53L986,414.5A48.91,48.91,0,0,0,945,358.76Z" style="fill:#073e47"></path></g></g><path d="M572.55,1109v-89.87c44.9,36,106.77,56,151.89,56,72.26,0,116.42-33.26,116.42-92.35,0-66.77-66.64-101.47-174.67-91.19V822.66C770.93,821,827,783.23,824.89,720.05c-1.38-49.93-35.1-79.16-97.95-79.16-39.55,0-82.79,14.62-123.89,45.37l1.14-86.66c30.58-22.14,86.29-38,136.81-38,105.46,0,174.83,63.1,174.83,150.76,0,64.39-34.08,110-102.33,136.29,79.83,20.44,120.24,68,120.24,138.92,0,96.27-80.77,167.91-191.4,167.91C682.09,1155.5,616.92,1137.32,572.55,1109Z" style="fill:#fff"></path><path d="M1037.8,1049.93h101.9v98.93H1037.8Z" style="fill:#fff"></path></svg> 