<?xml version="1.0" encoding="UTF-8"?> <svg xmlns="http://www.w3.org/2000/svg" viewBox="0 0 1011.69 380.02"><path d="M144,212.31l-3.87-4.2c1.58-14.7-8.85-25.71-27-16.33-4.23-10.34-11.13-18-22.79-19.59-11-1.55-20.57,1.4-27.8,10.71l-1.09-.84c.43-5.31.5-10.68,1.36-15.92,5.21-31.81,17.83-60.28,38.8-85q41.06-48.33,103.33-60.3a169,169,0,0,1,74.37,2.42c21.88,5.54,35.2,19.4,39.09,41.85,4.7,27.06-18.35,55-45.88,56.24-9.08.41-17.67-1.85-26.45-3.06-20.91-2.88-39.65,2.54-56.12,15.25-15.13,11.68-24.87,27.09-28.37,46-.88,4.75-.69,9.69-.9,14.55-.11,2.72,0,5.46,0,8.39-3.57.84-7.15,1-9.91,2.54C148.19,206.5,146.52,209.48,144,212.31Z" style="fill:#fff"></path><path d="M83.9,231.76c-11,1.05-25.52-8.9-26-25.77-.41-15,12-26.82,27.14-26.69s26.18,11.59,26.07,26.89C111,221.13,99.56,231.9,83.9,231.76Z" style="fill:#fff"></path><path d="M162,245.54a20.28,20.28,0,0,1-20.09,20.39,20.49,20.49,0,0,1-20.41-20.16c-.1-10.29,9.49-20.42,19.89-20.15C154.21,225.94,161.29,234.49,162,245.54Z" style="fill:#fff"></path><path d="M117.5,293.22c-.09,10.17-7.61,17.4-18,17.26a18.14,18.14,0,0,1-17.83-17.84c0-9.84,8.63-18.11,18.61-17.87C109.75,275,117.59,283.41,117.5,293.22Z" style="fill:#fff"></path><path d="M103.66,237.79A13.69,13.69,0,0,1,117.49,252a14.08,14.08,0,1,1-13.83-14.22Z" style="fill:#fff"></path><path d="M205.84,365.09c-7.6,0-13.47-5.84-13.26-13.14s5.71-12.43,13.19-12.46c7.82,0,13.38,5.41,13.27,13C218.94,359.32,212.88,365.11,205.84,365.09Z" style="fill:#fff"></path><path d="M168.64,314.23A12.11,12.11,0,1,1,180.72,302,12.33,12.33,0,0,1,168.64,314.23Z" style="fill:#fff"></path><path d="M183.74,266.12c-.1,7-4.57,11.39-11.68,11.37-7.27,0-11.75-4.75-11.5-12.17.22-7,4.79-11.19,12-11C179.52,254.46,183.85,259,183.74,266.12Z" style="fill:#fff"></path><path d="M211.81,316.67a10,10,0,0,1-10.39,10.26A10.59,10.59,0,0,1,190.77,316a10.76,10.76,0,0,1,11-10.67C207.85,305.48,211.9,310.05,211.81,316.67Z" style="fill:#fff"></path><path d="M132.06,310.5c-6.12,0-10.41-4.36-10.3-10.39.11-5.53,5.17-10.22,10.89-10.08a10.71,10.71,0,0,1,10,10.31C142.66,306.21,138.15,310.53,132.06,310.5Z" style="fill:#fff"></path><path d="M144.77,346.07a9.82,9.82,0,0,1-9.56-10.4A9.94,9.94,0,0,1,145,326c5.26,0,10.44,4.92,10.45,10C155.51,341.86,150.87,346.21,144.77,346.07Z" style="fill:#fff"></path><path d="M135.15,203.38a10.31,10.31,0,0,1-9.91,10.28c-4.87,0-9.71-4.77-9.84-9.78A10,10,0,0,1,125,194C129.91,193.86,135,198.53,135.15,203.38Z" style="fill:#fff"></path><path d="M71.92,246.89a10,10,0,0,1,9.71,9,9.5,9.5,0,1,1-9.71-9Z" style="fill:#fff"></path><path d="M186.33,330.61c0,5.26-3.08,8.57-8,8.48a8.36,8.36,0,1,1,.4-16.71C183.41,322.53,186.28,325.64,186.33,330.61Z" style="fill:#fff"></path><path d="M205.43,279c.09,4.33-2.65,7.19-6.88,7.2a7.46,7.46,0,0,1-7.19-6.58,7.27,7.27,0,0,1,6.94-7.41C202.75,272,205.35,274.46,205.43,279Z" style="fill:#fff"></path><path d="M224.46,298a6.7,6.7,0,0,1-6.86,7.29,6.79,6.79,0,0,1-7.18-7,7,7,0,0,1,14-.27Z" style="fill:#fff"></path><path d="M218,330.52a7,7,0,0,1,7.37-7,7.15,7.15,0,0,1-.92,14.27A6.85,6.85,0,0,1,218,330.52Z" style="fill:#fff"></path><path d="M158.13,221.52c-4,.11-6.39-2.16-6.46-6.11-.06-3.63,2.16-6.24,5.54-6.5s7.13,3.25,7.1,6.69A6.13,6.13,0,0,1,158.13,221.52Z" style="fill:#fff"></path><path d="M249.87,346.76a5.7,5.7,0,0,1-6.42,5.52,6,6,0,0,1-5.45-6,5.77,5.77,0,0,1,6.12-5.9A6.13,6.13,0,0,1,249.87,346.76Z" style="fill:#fff"></path><path d="M238.23,305.22c3.32.09,5.39,2.28,5.34,5.67a5.79,5.79,0,0,1-5.62,5.66,6.12,6.12,0,0,1-5.78-6.27C232.36,307.19,234.82,305.14,238.23,305.22Z" style="fill:#fff"></path><path d="M145.89,274.89a6.19,6.19,0,0,1,5.75,5.7,5.77,5.77,0,0,1-5.68,5.63,5.53,5.53,0,0,1-5.61-5.61A5.6,5.6,0,0,1,145.89,274.89Z" style="fill:#fff"></path><path d="M261.32,326.2a5.21,5.21,0,0,1,5.11,5.33,5.43,5.43,0,0,1-5.65,5.52,5.22,5.22,0,0,1-5.21-5.22A6,6,0,0,1,261.32,326.2Z" style="fill:#fff"></path><path d="M288.61,344.54c-2.64,1.83-4,3.46-5.63,3.73-2.43.39-3.76-1.41-3.68-3.87s1.73-4.08,4-3.73C284.81,340.9,286.11,342.64,288.61,344.54Z" style="fill:#fff"></path><path d="M297,326.31c-2.44,1.86-3.84,3.72-5.48,4-2.47.37-3.86-1.85-3.3-4.07.36-1.43,2.22-3.57,3.29-3.5C293.09,322.81,294.56,324.59,297,326.31Z" style="fill:#fff"></path><path d="M141.71,217c-2.62,1.48-4.09,3-5.52,2.92-1.12,0-3.29-2.31-3.08-2.91.53-1.48,2-3.44,3.36-3.59S139.21,215.16,141.71,217Z" style="fill:#fff"></path><path d="M637.53,149.76c13.4-17.54,42.78-22.18,57.21,6.7a22.24,22.24,0,0,1,3.09-3.61c8.77-11.86,20.1-18.57,35-17,16.49,1.55,27.83,10.83,34,26.3,2.57,6.19,3.6,13.41,3.6,20.64.52,17,0,34,0,50.54,0,8.77-6.18,13.92-16,13.92-9.28,0-15.46-5.15-15.46-13.92V180.19c0-8.26-6.7-16-14.44-17-8.76-1-16.49,3.61-19.06,11.86-1,3.09-1,6.7-1,9.8v46.42c0,5.67.52,11.34-6.18,13.92-7.73,2.58-15,3.1-21.65-2.58-2.06-1.55-3.09-5.16-3.09-8.25V181.73a19,19,0,0,0-15.46-19.08,17,17,0,0,0-18,10.83,39.32,39.32,0,0,0-1.55,10.83v49c0,8.25-5.66,12.89-14.94,12.89s-15.46-4.64-15.46-12.89v-83c0-10.31,3.09-13.41,13.4-14.44C629.8,135.83,635.47,140,637.53,149.76Z" style="fill:#fff"></path><path d="M491,191.52c-2.07-18.57,4.12-34,19.06-45.9,27.84-21.66,72.16-8.25,79.37,25.79,3.1,12.89,2.58,27.33,0,40.22-4.12,21.67-26.8,37.65-49,37.14-23.19-.52-43.81-17-48.44-38.68C490.51,204.41,491,198.22,491,191.52Zm70.09.52h0a55.68,55.68,0,0,1-.52-9.29c-.51-10.31-9.27-19.6-19.07-19.6s-19.07,8.77-19.58,19.09a123.15,123.15,0,0,0,0,19.59c.51,9.8,8.76,18.57,18,19.6,8.24,1,17.52-6.19,19.58-15.47C560.6,201.83,560.6,197.19,561.12,192Z" style="fill:#fff"></path><path d="M818.81,200.29c-1,13.93,8.25,23.21,22.16,24.24,9.28.52,17-3.09,25.26-6.7,9.79-4.64,19.06,2.58,17.52,12.89-.51,3.1-3.09,6.7-5.67,8.77-8.76,7.22-19.07,9.28-29.9,9.8-13.39.51-26.79-1.55-38.65-8.77-14.94-9.28-21.64-22.69-22.16-40.23,0-7.22.52-14.44.52-21.66,0-22.69,24.74-46.42,55.66-42.81,19.58,2.07,34.53,11.86,40.72,32,1.54,5.16,1.54,11.35,1,17-1,11.35-6.17,15.47-17.51,15.47h-49Zm0-18.57h29.37c2.58,0,7.22-1,7.74-2.06.52-3.61.52-7.73-1-10.83-4.13-7.22-15.46-9.8-24.22-6.7C821.39,164.7,817.78,170.38,818.81,181.72Z" style="fill:#fff"></path><path d="M931.3,162.64V208c0,8.77,3.1,11.35,12.37,11.35h8.77c7.73.52,12.88,5.16,13.39,12.89s-4.12,14.45-11.85,14.45c-10.31,0-21.12-.52-30.92-3.1-13.4-3.61-21.65-15-21.65-28.88-.51-37.65,0-75.3,0-113.47A9.86,9.86,0,0,1,905,94c5.15-4.64,17.53-5.15,23.19,0,2.07,1.55,3.09,5.16,3.61,7.74.51,11.35,0,22.69,0,35.07H954c8.77,0,12.37,3.61,12.37,12.38s-3.6,12.38-12.37,12.38H933.37C932.86,162.12,932.33,162.12,931.3,162.64Z" style="fill:#fff"></path><path d="M424,192v8.77c0,16,10.31,22.17,25.26,20.62,4.64-.51,8.76-2.57,12.88-4.12,7.73-3.1,13.4-2.06,17.53,5.16,3.6,6.7,2.57,12.89-4.13,17.53-10.31,7.74-22.67,9.29-35,8.77-4.64,0-9.28-1-13.92-2.06a41.27,41.27,0,0,1-32.47-39.2c-.51-11.86-1-23.72.52-35.07,3.09-23.21,20.1-36.1,45.87-37.14,11.85-.51,23.7,1,34,8.77,6.7,4.64,7.73,10.83,3.61,18.05-3.61,6.71-8.25,7.74-15.46,5.68-6.19-2.07-12.89-4.13-19.59-4.13-11.85-.51-18.55,6.71-19.07,19.08C423.51,185.33,424,188.94,424,192Z" style="fill:#fff"></path></svg> 