<?xml version="1.0" encoding="UTF-8"?> <svg xmlns="http://www.w3.org/2000/svg" viewBox="0 0 1011.69 380.02"><path d="M406,281.35a2.83,2.83,0,0,1-2.85-2.81V261a2.83,2.83,0,0,1,2.81-2.84h40.71a2.83,2.83,0,0,1,2.85,2.81v39.33a7,7,0,0,1-2,4.88c-10.42,9.63-22.88,15-39.15,15-42,0-54.92-33.14-54.92-56.81,0-23,13-56.65,54.92-56.65,16.89,0,29.29,6.62,40.09,17.19a2.94,2.94,0,0,1,0,4.1l-11.83,13a2.9,2.9,0,0,1-3.93.16c-6.63-5.84-16.58-10.57-24.31-10.57-25.56,0-29.29,24.3-29.29,32.54s3.63,33.77,29.29,33.77a29.88,29.88,0,0,0,15.78-4.57V281.44H406Z" style="fill:#fff"></path><path d="M563.18,316.22a1.74,1.74,0,0,1-1.63,2.52H539a4.26,4.26,0,0,1-3.93-2.68l-7.9-19.66H494.67l-7.81,19.67a4.33,4.33,0,0,1-4,2.69H460.29a1.89,1.89,0,0,1-1.85-1.93,1.71,1.71,0,0,1,.11-.59L507,209.56a4.1,4.1,0,0,1,7.58,0ZM502.57,276.6h16.58L511,256.09Z" style="fill:#fff"></path><path d="M665.6,209.38a4,4,0,0,1,3.62-2.38,3.9,3.9,0,0,1,3.63,2.52L711.2,316a2,2,0,0,1-1.89,2.69H688.16a4.12,4.12,0,0,1-3.79-2.69l-18.14-54.93-25.56,56.44a4,4,0,0,1-7.26,0l-25.54-56.44L589.73,316a4.12,4.12,0,0,1-3.79,2.69H564.79a2,2,0,0,1-2-2,2,2,0,0,1,.12-.69l38.35-106.52a3.86,3.86,0,0,1,3.46-2.52,4.19,4.19,0,0,1,3.79,2.38l28.57,61.82Z" style="fill:#fff"></path><path d="M813.31,209.38a4,4,0,0,1,3.63-2.38,3.91,3.91,0,0,1,3.63,2.52L858.91,316a2,2,0,0,1-1.19,2.57,2.09,2.09,0,0,1-.69.12H835.87a4.13,4.13,0,0,1-3.79-2.69l-18.2-54.89-25.56,56.5a4,4,0,0,1-7.26,0l-25.56-56.5-18.09,54.92a4.11,4.11,0,0,1-3.79,2.69H712.47a2,2,0,0,1-2-2,2,2,0,0,1,.12-.69l38.35-106.51a3.87,3.87,0,0,1,3.46-2.53,4.24,4.24,0,0,1,3.8,2.38l28.57,61.82Z" style="fill:#fff"></path><path d="M963.09,316.22a1.75,1.75,0,0,1-.77,2.34,1.82,1.82,0,0,1-.86.18H938.94a4.26,4.26,0,0,1-3.93-2.68L927.1,296.4H894.56l-7.89,19.74a4.27,4.27,0,0,1-3.94,2.68H860.18a1.89,1.89,0,0,1-1.85-1.92,2.05,2.05,0,0,1,.11-.6l48.45-106.68a4.1,4.1,0,0,1,7.58,0ZM902.48,276.6h16.57l-8.14-20.51Z" style="fill:#fff"></path><polygon points="561.6 318.76 564.76 318.76 563.03 316.84 561.6 318.76" style="fill:#fff"></polygon><polygon points="709.31 318.76 712.47 318.76 710.89 316.94 709.31 318.76" style="fill:#fff"></polygon><polygon points="857.03 318.76 860.18 318.76 858.6 316.94 857.03 318.76" style="fill:#fff"></polygon><path d="M441.92,138.81c0,12.47-8.69,29.68-37.1,29.68H366.67a1.84,1.84,0,0,1-1.89-1.79V59.91A1.85,1.85,0,0,1,366.57,58h38.29C433.26,58,442,75.38,442,87.84a27.76,27.76,0,0,1-17.68,25.72A27.49,27.49,0,0,1,441.92,138.81ZM408.5,110.24c21-.47,26.52-13.56,26.52-22.56,0-11.52-7.73-23.51-29-23.51H372v46.07Zm-3.16,52.25c23.37,0,29.68-13.26,29.68-23.51,0-8.14-5.53-22.26-26.52-22.78H372v46.24h33.3Z" style="fill:#fff"></path><path d="M544.06,74.11a1.87,1.87,0,0,1-1.3.67,1.81,1.81,0,0,1-1.38-.51,51.29,51.29,0,0,0-31.88-11c-41,.61-47.05,37.07-47.05,49.86s6,49.71,47,49.71a53.78,53.78,0,0,0,31.72-10.58,2.15,2.15,0,0,1,2.85.31l1.63,2.21a1.74,1.74,0,0,1,0,2.46,2,2,0,0,1-.28.23,57.47,57.47,0,0,1-35.8,12c-42.13,0-54.43-32.67-54.43-56.34,0-22.57,12.31-56.18,54.43-56.18,15.79,0,26.52,4.73,36.14,12.62a2,2,0,0,1,.16,2.69Z" style="fill:#fff"></path><path d="M612.23,121.93A1.84,1.84,0,0,1,614,120h33.91a1.83,1.83,0,0,1,1.88,1.79v33.24a3.24,3.24,0,0,1-1.62,3,56.9,56.9,0,0,1-35.67,11.85c-42.14,0-54.44-32.67-54.44-56.35,0-22.56,12.32-56.18,54.44-56.18,15.79,0,26.52,4.74,36.14,12.63a2,2,0,0,1,.16,2.68l-1.74,1.89a1.87,1.87,0,0,1-1.3.67,1.81,1.81,0,0,1-1.38-.51,51.29,51.29,0,0,0-31.84-11c-41,.63-47,37.07-47,49.86s6,49.71,47,49.71a54.34,54.34,0,0,0,29.83-9.16V126h-28.3a1.84,1.84,0,0,1-1.88-1.79v-2.31Z" style="fill:#fff"></path><path d="M111.53,273.48c-17,0-29.58-5.11-36.22-15-9.06-13.52-5.69-33.84,9.47-57.25,14.55-22.45,38.4-45.44,67.15-64.72,61.27-41.12,123.65-51.92,141.92-24.63h0c18.3,27.28-15.34,80.87-76.62,122-28.75,19.29-59.06,32.64-85.35,37.58A110.38,110.38,0,0,1,111.53,273.48ZM258,104.66c-26.44,0-65,13.72-101.61,38.3-27.88,18.71-50.95,40.91-64.95,62.5-13.24,20.32-16.72,38-9.66,48.64s24.84,14.11,48.65,9.63c25.28-4.76,54.55-17.68,82.45-36.39,55.72-37.42,89.83-88.28,74.48-111.16-5.19-7.81-15.68-11.53-29.43-11.53Z" style="fill:#fff"></path><path d="M159.92,327.32a48,48,0,0,1-24.31-6.24c-19.09-11.06-28.85-35.41-27.45-68.6,1.42-32.54,13.39-69.74,33.71-104.94s46.63-64.27,74-81.66c28-17.9,54-21.59,73.21-10.55s28.83,35.42,27.39,68.61c-1.42,32.54-13.39,69.74-33.72,104.94s-46.61,64.27-74,81.66C191.36,321.67,174.64,327.32,159.92,327.32Zm104.79-272c-13.51,0-29,5.32-45.56,15.79-26.58,16.94-52.19,45.18-72,79.55s-31.52,70.61-32.9,102.11c-1.35,30.76,7.3,53.13,24.4,63s40.68,6.15,66.71-10.4c26.58-16.94,52.14-45.18,72-79.54C318,155.46,321.78,81.41,285.91,60.69A41.84,41.84,0,0,0,264.71,55.29Z" style="fill:#fff"></path><path d="M92,216.39c-20.3,0-35.4-4.35-38.39-14.81-2.67-9.3,5.38-20.37,23.15-31.84,16.38-10.56,39.31-20.33,64.56-27.54s49.93-11,69.37-10.72c21.15.32,33.81,5.45,36.48,14.8h0c2.67,9.36-5.34,20.37-23.15,31.84-16.36,10.56-39.31,20.34-64.56,27.55C136.31,212.29,111.64,216.39,92,216.39Zm116.48-77.61c-18.45,0-41.47,3.7-65.08,10.45-24.57,7-46.81,16.49-62.64,26.66-14,9-21.77,18-20.14,23.69,3.33,11.68,43.93,14.17,96.8-.93C182,191.63,204.2,182.16,220,172c14-9,21.67-18.08,20.08-23.64h0c-1.63-5.6-12.92-9.24-29.57-9.5h-2.06Z" style="fill:#fff"></path></svg> 