<?xml version="1.0" encoding="UTF-8"?> <svg xmlns="http://www.w3.org/2000/svg" viewBox="0 0 1011.69 380.02"><path d="M612.52,168.39c-.86,1.83-1.81,3.64-2.57,5.52q-21.27,52.92-42.44,105.9c-1.74,4.4-4,6.7-9,6.27a78.71,78.71,0,0,0-14.07,0c-5.25.48-7.64-1.84-9.49-6.51-13.9-35-28-69.87-42.08-104.78a12.54,12.54,0,0,0-3.92-5.64,60.51,60.51,0,0,0-.63,6.27q-.06,51.29,0,102.56c0,8,0,8-8.2,8-4.49,0-9-.15-13.49,0-4,.18-5.73-1.4-5.59-5.46.18-5.08,0-10.16,0-15.24q0-79.11,0-158.23c0-8,.1-8.1,8.3-8.12,19,0,19-.07,26.14,17.31q26.19,63.87,52.32,127.77c.85,2.06,1.82,4.07,3.48,7.76,1.77-3.82,2.88-6,3.79-8.19q28.28-69,56.42-138.1c2-5,4.77-7.06,10-6.62,4.07.35,8.21.07,12.31.07,8.5,0,8.7.2,8.7,8.42q0,29,0,58,0,56.26,0,112.53c0,8,0,8-8.26,8.05-4.5,0-9-.3-13.49.08-5.07.43-6.38-1.76-6.34-6.46.16-21.09.07-42.19.07-63.29,0-13.87,0-27.74,0-41.61,0-2-.31-4-.47-6.07Z" style="fill:#fff"></path><path d="M861.23,271.58c-15.93,17.62-35.09,21-56.21,15.76-20.93-5.17-31.22-20.79-29.47-43.48,1.4-18.18,15.4-32.09,35.31-33.68,13.8-1.1,27.71-.72,41.57-1,2.52-.05,5,0,7.42,0,4.11-14.24-3.84-27.37-18-29.75-16-2.7-30.31,0-40.62,14.23-.94,1.3-4.58,1.79-6.36,1.1-4-1.54-7.51-4.1-11.27-6.19-3.53-1.95-3.81-4.29-1.62-7.66,5.83-8.94,13.43-15.87,23.39-19.63,17.8-6.72,35.91-7.18,53.85-.57,17.13,6.32,26.74,19,27.62,37.07,1,20.84.65,41.74,1,62.61.12,7,.44,14,1,21,.28,3.41-.84,4.66-4.13,4.6-5.28-.09-10.57-.26-15.83.05-4.48.27-6.53-1.32-6.54-5.88C862.4,277.68,861.75,275.18,861.23,271.58Zm-1.44-42.95c-12.39,0-24.89-.4-37.35.12-11.65.49-18.86,7.83-19.58,18.59s5.4,18.42,17.42,20.25a46.22,46.22,0,0,0,16.17-.33C853.3,263.72,864.94,244.2,859.79,228.63Z" style="fill:#fff"></path><path d="M725.11,193c0-28.92.14-57.83-.12-86.74-.06-5.76,1.84-7.76,7.41-7.3a77.83,77.83,0,0,0,12.31,0c5.59-.44,7.5,1.64,7.47,7.38-.21,41.22-.11,82.44-.11,123.66,0,16.41-.13,32.82.07,49.23.07,4.94-1.34,7.28-6.66,6.88a94.4,94.4,0,0,0-14.07,0c-4.91.36-6.42-1.53-6.39-6.36C725.2,250.78,725.11,221.87,725.11,193Z" style="fill:#fff"></path><path d="M107.68,260.29c0-21.22,16.08-37.57,37.14-37.7a37.56,37.56,0,1,1-37.14,37.7Z" style="fill:#fff"></path><path d="M107.68,125a37.54,37.54,0,1,1,37.24,37.87A37.49,37.49,0,0,1,107.68,125Z" style="fill:#fff"></path><path d="M697.18,223.48c0,18.53-.15,37.07.09,55.6.07,5.29-1.51,7.54-7,7a69.27,69.27,0,0,0-12.88,0c-5.62.51-7.44-1.5-7.4-7.23.24-33.76.12-67.51.12-101.27,0-4.29.08-8.58,0-12.87-.08-3.46,1.5-5,4.91-5,5.28,0,10.57.24,15.82-.07,4.91-.28,6.5,1.71,6.46,6.48C697.08,185.23,697.18,204.35,697.18,223.48Z" style="fill:#fff"></path><path d="M221.36,193a29.4,29.4,0,1,1,29.23,29.68A29.31,29.31,0,0,1,221.36,193Z" style="fill:#fff"></path><path d="M232.1,322.12a28.48,28.48,0,0,1,28.24-28.48c15.55-.25,28.8,12.91,28.85,28.65a28.48,28.48,0,0,1-28.72,28.58C244.38,350.83,232,338.32,232.1,322.12Z" style="fill:#fff"></path><path d="M232.1,62.65a28.22,28.22,0,0,1,28.79-28.39,28.56,28.56,0,0,1-.36,57.12A28.22,28.22,0,0,1,232.1,62.65Z" style="fill:#fff"></path><path d="M221.52,234.33a27.31,27.31,0,0,1,28.13,26.87,27.55,27.55,0,1,1-55.09,1.15A27.25,27.25,0,0,1,221.52,234.33Z" style="fill:#fff"></path><path d="M222.43,97.14a27,27,0,0,1,27.22,27.64,27.55,27.55,0,1,1-55.09-.65C194.72,108.76,206.81,97.05,222.43,97.14Z" style="fill:#fff"></path><path d="M185.07,169a24.37,24.37,0,1,1-24.18,24.17A24.36,24.36,0,0,1,185.07,169Z" style="fill:#fff"></path><path d="M213.28,321a22.42,22.42,0,1,1-44.84-.66A22.11,22.11,0,0,1,191.21,298C203.87,298.09,213.4,308,213.28,321Z" style="fill:#fff"></path><path d="M190.63,83.31c-12.09-.06-21-9-21-21.14,0-12.29,9.16-21.38,21.53-21.29s21.1,9.28,20.95,21.79C212,74.65,202.88,83.37,190.63,83.31Z" style="fill:#fff"></path><path d="M149,193.43a18.8,18.8,0,0,1-19.43,19.06,19.24,19.24,0,1,1,.27-38.47A19,19,0,0,1,149,193.43Z" style="fill:#fff"></path><path d="M683.34,97.43a17.59,17.59,0,0,1,18.22,17.95,18.08,18.08,0,1,1-18.22-17.95Z" style="fill:#fff"></path><path d="M417.48,183.41a9.14,9.14,0,0,1,9.39,9.17,9,9,0,0,1-9.36,9.12,9.11,9.11,0,0,1-9.17-8.79A9.36,9.36,0,0,1,417.48,183.41Z" style="fill:#fff"></path><path d="M289.79,130.06a9.21,9.21,0,1,1,0-18.41,9.21,9.21,0,0,1,0,18.41Z" style="fill:#fff"></path><path d="M342,192.76a9.18,9.18,0,0,1-9.64,9,9.15,9.15,0,0,1,.34-18.3A9.4,9.4,0,0,1,342,192.76Z" style="fill:#fff"></path><path d="M332.51,58.5a9.29,9.29,0,0,1-9-9.59,9,9,0,0,1,9-8.9A9.25,9.25,0,0,1,342,49.15,9.74,9.74,0,0,1,332.51,58.5Z" style="fill:#fff"></path><path d="M375.24,255a9.74,9.74,0,0,1,9.24,9.55,9.33,9.33,0,0,1-9.71,8.88,9,9,0,0,1-8.82-9.07A9.36,9.36,0,0,1,375.24,255Z" style="fill:#fff"></path><path d="M332.82,345c-5.55.1-9.31-3.5-9.34-8.95a8.77,8.77,0,0,1,8.68-9.08,9.06,9.06,0,0,1,9.77,8.71A9,9,0,0,1,332.82,345Z" style="fill:#fff"></path><path d="M374.68,130.06a9.21,9.21,0,0,1,.42-18.41,9.44,9.44,0,0,1,9.1,9.44A9.32,9.32,0,0,1,374.68,130.06Z" style="fill:#fff"></path><path d="M290.32,273.41c-5.47.08-9.17-3.59-9.17-9.1a8.9,8.9,0,0,1,8.52-9.29A9,9,0,0,1,299.2,264,8.79,8.79,0,0,1,290.32,273.41Z" style="fill:#fff"></path><path d="M332,123c-8,0-16,.1-24-.11-1.32,0-2.6-1.45-3.89-2.23,1.23-.67,2.45-1.92,3.69-1.93q24.62-.2,49.23,0c1.19,0,2.37,1.31,3.56,2-1.32.76-2.62,2.14-3.95,2.17C348.4,123.13,340.19,123,332,123Z" style="fill:#fff"></path><path d="M375.63,194.69c-7.8,0-15.6.13-23.39-.1-1.71-.05-3.38-1.38-5.06-2.12,1.78-.68,3.55-1.93,5.34-1.95q22.51-.24,45,0c1.9,0,3.78,1.47,5.67,2.25-1.79.64-3.56,1.77-5.37,1.82C390.46,194.81,383,194.69,375.63,194.69Z" style="fill:#fff"></path><path d="M360.78,265.74a35.52,35.52,0,0,1-4.87.71c-15.58.05-31.16.09-46.74-.06-1.57,0-3.13-1.35-4.7-2.06,1.55-.8,3.09-2.27,4.64-2.28,15.77-.17,31.55-.15,47.32,0,1.59,0,3.18,1.06,4.76,1.63C361.06,264.34,360.92,265,360.78,265.74Z" style="fill:#fff"></path><path d="M324.85,60.77c1.08,5.35-21.58,44.91-27.94,48.69.37-2.41.17-4.32.95-5.67Q309.28,84,321,64.44C321.83,63.11,323.34,62.2,324.85,60.77Z" style="fill:#fff"></path><path d="M408.56,180.94a53,53,0,0,1-3.28-4.41c-7.38-12.42-14.78-24.83-22-37.36-.85-1.49-.5-3.67-.71-5.53,1.54,1.18,3.6,2.05,4.54,3.59q11.1,18.27,21.79,36.78c1,1.78,1.26,4,1.87,6.05Z" style="fill:#fff"></path><path d="M297.73,132.76c6,3.57,28.41,43,27.29,47.51C320,177.56,296.9,137.86,297.73,132.76Z" style="fill:#fff"></path><path d="M325.42,203.85c.09,6.53-22.33,45.1-28.39,49.25.5-2.92.34-4.92,1.17-6.34q11.28-19.44,22.89-38.69C321.87,206.78,323.3,205.88,325.42,203.85Z" style="fill:#fff"></path><path d="M382.16,253.38c.34-3.08,0-5,.78-6.35q11.38-19.69,23.15-39.15c.71-1.16,2.62-1.59,4-2.37,0,1.41.59,3.12,0,4.16q-11.85,20.43-24,40.67C385.51,251.2,384.36,251.68,382.16,253.38Z" style="fill:#fff"></path><path d="M340,61.49c5.37,2.78,28.13,41.84,27.68,47C363.09,106.91,339.37,67.18,340,61.49Z" style="fill:#fff"></path><path d="M297.32,277.18c4.83,1.21,28.67,41.5,27.54,46.55C320.25,321.88,296.92,282.44,297.32,277.18Z" style="fill:#fff"></path><path d="M339.83,323.76c.19-1.63-.11-3.55.65-4.86q11.43-19.74,23.19-39.27c.77-1.28,2.26-2.13,3.83-3.56C368.31,281.17,347.07,319,339.83,323.76Z" style="fill:#fff"></path><path d="M369.33,134.81l-27.24,46.35-2.53-1c.32-1.74.19-3.75,1-5.2,7.42-12.8,15.06-25.48,22.52-38.27,1-1.67,1.31-3.71,1.94-5.58Z" style="fill:#fff"></path><path d="M366.76,252.51a28.7,28.7,0,0,1-3.48-3.95c-7.59-12.7-15.15-25.42-22.53-38.24-.74-1.28-.24-3.26-.32-4.92,1.33.83,3.2,1.35,3.92,2.55q11.47,19,22.56,38.22c.92,1.6,1,3.69,1.42,5.56Z" style="fill:#fff"></path><path d="M301.57,194.65c-4.46,0-8.94.13-13.4-.09-1-.05-1.93-1.3-2.9-2,1-.7,2-2,3-2,8.93-.16,17.87-.19,26.81,0,1.08,0,2.14,1.55,3.21,2.38-1.09.58-2.15,1.62-3.26,1.67-4.46.19-8.94.08-13.41.08Z" style="fill:#fff"></path><path d="M265.62,161.93c.2-1.63-.06-3.51.68-4.83,3.88-6.94,7.9-13.81,12.15-20.52.79-1.25,2.88-1.67,4.37-2.47-.19,1.57.05,3.4-.67,4.68-3.79,6.77-7.79,13.42-11.82,20a28.78,28.78,0,0,1-3.15,3.68Z" style="fill:#fff"></path><path d="M267.9,224a22.58,22.58,0,0,1,2.54,2.94c4,6.64,8,13.28,11.81,20.06.7,1.25.27,3.12.36,4.7-1.33-.73-3.21-1.12-3.91-2.24q-6.48-10.36-12.42-21c-.6-1.09.05-2.87.12-4.32Z" style="fill:#fff"></path><path d="M304.68,51.5a97,97,0,0,1-9.95-.11c-1.15-.11-2.17-1.56-3.25-2.4,1-.65,2-1.85,3.09-1.88,6.83-.17,13.68-.19,20.51,0,1.09,0,2.14,1.51,3.21,2.33-1,.67-2,1.86-3.07,1.94C311.72,51.66,308.19,51.5,304.68,51.5Z" style="fill:#fff"></path><path d="M264.47,266.47a30.68,30.68,0,0,1-5.84-.1c-1.4-.29-2.61-1.46-3.91-2.23,1.2-.73,2.38-2,3.61-2.08a126.64,126.64,0,0,1,14.05,0c1.15.07,2.22,1.55,3.33,2.38-1.21.67-2.37,1.77-3.64,1.93A62.11,62.11,0,0,1,264.47,266.47Z" style="fill:#fff"></path><path d="M264.85,118.7a62.27,62.27,0,0,1,7.61.09c1,.12,1.92,1.33,2.88,2-.93.72-1.83,2-2.79,2.07-5.07.21-10.17.21-15.24,0-.91-.05-1.76-1.49-2.64-2.28.85-.64,1.66-1.74,2.56-1.83C259.75,118.54,262.3,118.7,264.85,118.7Z" style="fill:#fff"></path><path d="M318.19,336.06c-4,2.89-23.07,2.79-26.61-.14C295.58,333,314.65,333.1,318.19,336.06Z" style="fill:#fff"></path><path d="M284.36,277.91l-8.65,15.17C272.76,287.54,277.57,278.64,284.36,277.91Z" style="fill:#fff"></path><path d="M281.18,109.23c-2.46-4.06-5-8.09-7.32-12.22a3,3,0,0,1,.46-2.56c.27-.4,1.44-.49,2.08-.3C279,94.93,283.43,105.18,281.18,109.23Z" style="fill:#fff"></path></svg> 